<svg width="734" height="411" fill="none" xmlns="http://www.w3.org/2000/svg"><path d="M0 10C0 4.477 4.477 0 10 0h714c5.523 0 10 4.477 10 10v391c0 5.523-4.477 10-10 10H10c-5.523 0-10-4.477-10-10V10Z" fill="#F4F5F9"/><path d="M24 30a6 6 0 0 1 6-6h191a6 6 0 0 1 6 6v127a6 6 0 0 1-6 6H30a6 6 0 0 1-6-6V30Z" fill="#fff"/><path fill-rule="evenodd" clip-rule="evenodd" d="M221 25H30a5 5 0 0 0-5 5v127a5 5 0 0 0 5 5h191a5 5 0 0 0 5-5V30a5 5 0 0 0-5-5ZM30 24a6 6 0 0 0-6 6v127a6 6 0 0 0 6 6h191a6 6 0 0 0 6-6V30a6 6 0 0 0-6-6H30Z" fill="#E0E1E9"/><path d="M42.672 43.492h1.481c-.044-1.63-1.486-2.813-3.554-2.813-2.044 0-3.61 1.168-3.61 2.923 0 1.417 1.015 2.247 2.65 2.69l1.203.328c1.089.288 1.93.646 1.93 1.55 0 .995-.95 1.651-2.258 1.651-1.183 0-2.168-.527-2.257-1.635h-1.541c.1 1.844 1.526 2.983 3.808 2.983 2.391 0 3.768-1.258 3.768-2.983 0-1.835-1.635-2.546-2.928-2.864l-.994-.258c-.795-.204-1.854-.577-1.85-1.552 0-.865.791-1.506 2.044-1.506 1.168 0 1.998.547 2.108 1.486ZM46.009 51h1.486v-7.637H46.01V51Zm.75-8.815c.513 0 .94-.398.94-.885s-.427-.89-.94-.89c-.516 0-.939.403-.939.89s.423.885.94.885Zm6.301 1.178h-1.566v-1.83h-1.487v1.83H48.89v1.194h1.118v4.509c-.005 1.387 1.054 2.058 2.228 2.033.472-.005.79-.094.964-.159l-.268-1.228c-.1.02-.284.065-.522.065-.483 0-.915-.16-.915-1.02v-4.2h1.566v-1.194Zm4.853 7.791c1.666 0 2.844-.82 3.182-2.063l-1.407-.254c-.268.72-.915 1.089-1.76 1.089-1.272 0-2.127-.826-2.167-2.297h5.429v-.527c0-2.76-1.65-3.838-3.381-3.838-2.128 0-3.53 1.62-3.53 3.967 0 2.372 1.382 3.923 3.634 3.923Zm-2.147-4.639c.06-1.084.845-2.023 2.053-2.023 1.153 0 1.91.855 1.914 2.023h-3.967ZM66.663 51H68.2v-4.44h5.076V51h1.54V40.818h-1.54v4.425H68.2v-4.425h-1.537V51Zm13.563.154c1.665 0 2.844-.82 3.182-2.063L82 48.837c-.269.72-.915 1.089-1.76 1.089-1.273 0-2.128-.826-2.168-2.297h5.43v-.527c0-2.76-1.651-3.838-3.382-3.838-2.127 0-3.53 1.62-3.53 3.967 0 2.372 1.383 3.923 3.635 3.923Zm-2.148-4.639c.06-1.084.845-2.023 2.053-2.023 1.154 0 1.91.855 1.915 2.023h-3.968Zm9.296 4.654c1.263 0 1.974-.642 2.257-1.213h.06V51h1.451v-5.071c0-2.223-1.75-2.665-2.963-2.665-1.382 0-2.655.557-3.152 1.949l1.397.318c.219-.542.776-1.064 1.775-1.064.96 0 1.452.502 1.452 1.367v.035c0 .542-.557.532-1.93.691-1.446.169-2.927.547-2.927 2.282 0 1.501 1.128 2.327 2.58 2.327Zm.323-1.194c-.84 0-1.447-.377-1.447-1.113 0-.796.706-1.079 1.566-1.193.483-.065 1.626-.194 1.84-.408v.984c0 .905-.721 1.73-1.959 1.73Zm6.912-9.157h-1.487V51h1.487V40.818Zm5.564 2.545h-1.566v-1.83h-1.486v1.83h-1.119v1.194h1.119v4.509c-.005 1.387 1.054 2.058 2.227 2.033.472-.005.79-.094.964-.159l-.268-1.228c-.1.02-.283.065-.522.065-.482 0-.915-.16-.915-1.02v-4.2h1.566v-1.194Zm3.295 3.103c0-1.218.771-1.915 1.83-1.915 1.024 0 1.635.652 1.635 1.77V51h1.487v-4.858c0-1.904-1.044-2.878-2.615-2.878-1.188 0-1.904.517-2.262 1.342h-.095v-3.788h-1.466V51h1.486v-4.534Z" fill="#6C6E79"/><path d="M203 145.5a77.51 77.51 0 0 0-47.842-71.6 77.504 77.504 0 0 0-84.459 16.8A77.5 77.5 0 0 0 48 145.5h17.825a59.674 59.674 0 1 1 119.35 0H203Z" fill="#008FF8"/><path fill-rule="evenodd" clip-rule="evenodd" d="M204 146.5v-1a78.5 78.5 0 1 0-157 0v1h19.825v-1A58.677 58.677 0 0 1 125.5 86.825a58.677 58.677 0 0 1 58.675 58.675v1H204Zm-155.993-2c-.005.333-.007.667-.007 1h17.825a59.674 59.674 0 1 1 119.35 0H203a77.506 77.506 0 0 0-22.699-54.8 77.504 77.504 0 0 0-84.459-16.8 77.503 77.503 0 0 0-47.835 70.6Z" fill="#fff"/><path d="M146.862 71.002A77.505 77.505 0 0 1 203 145.229l-17.825.062a59.676 59.676 0 0 0-43.226-57.155l4.913-17.134Z" fill="#E9F7FF"/><path fill-rule="evenodd" clip-rule="evenodd" d="m146.176 69.766.962.275A78.5 78.5 0 0 1 204 145.226l.003 1-19.825.07-.003-1a58.677 58.677 0 0 0-42.502-56.198l-.961-.275 5.464-19.057Zm.686 1.236.012.004A77.5 77.5 0 0 1 203 145.229l-17.825.063a59.676 59.676 0 0 0-43.226-57.155l4.913-17.135Z" fill="#fff"/><path d="M107.881 123.248c4.049 0 6.801-2.636 6.792-6.312.009-3.48-2.424-5.984-5.7-5.984-1.598 0-2.974.666-3.613 1.563h-.107l.471-4.554h7.946v-3.143h-11.115l-.862 9.588 3.418.612c.56-.754 1.643-1.225 2.717-1.225 1.829.009 3.143 1.332 3.143 3.241 0 1.891-1.288 3.196-3.09 3.196-1.527 0-2.761-.959-2.85-2.371h-3.728c.071 3.143 2.814 5.389 6.578 5.389Zm10.192-.248h3.968l7.547-14.995v-3.187H116.83v3.143h8.78v.124L118.073 123Zm24.101-3.409c.009 2.184 1.403 4.039 4.004 4.039 2.575 0 4.013-1.855 4.004-4.039v-.959c.009-2.202-1.394-4.04-4.004-4.04-2.566 0-3.995 1.856-4.004 4.04v.959Zm-9.331-10.405c.009 2.184 1.403 4.021 3.996 4.021 2.583 0 4.021-1.82 4.012-4.021v-.959c.009-2.202-1.394-4.039-4.012-4.039-2.54 0-3.987 1.837-3.996 4.039v.959Zm.871 13.814h2.317l12.5-18.182h-2.317L133.714 123Zm11.044-4.368c.008-.87.355-1.767 1.42-1.767 1.119 0 1.412.897 1.403 1.767v.959c.009.87-.32 1.748-1.403 1.748s-1.412-.905-1.42-1.748v-.959Zm-9.313-10.405c.009-.843.337-1.767 1.394-1.767 1.118 0 1.42.897 1.411 1.767v.959c.009.87-.328 1.749-1.411 1.749-1.048 0-1.385-.879-1.394-1.749v-.959Z" fill="#6C6E79"/><path d="M116.798 139.466h.954v-2.335h2.335v-.955h-2.335v-2.335h-.954v2.335h-2.336v.955h2.336v2.335Zm5.131-.256h4.108V141h1.006v-1.79h1.193v-.937h-1.193v-6h-1.278l-3.836 6.068v.869Zm4.108-.937h-2.966v-.069l2.898-4.585h.068v4.654Zm8.245 1.091c0 .954.597 1.755 1.705 1.755 1.09 0 1.687-.801 1.687-1.755v-.461c0-.954-.579-1.755-1.687-1.755-1.091 0-1.705.801-1.705 1.755v.461Zm-4.347-4.995c0 .955.597 1.756 1.705 1.756 1.091 0 1.687-.801 1.687-1.756v-.46c0-.955-.579-1.756-1.687-1.756-1.091 0-1.705.801-1.705 1.756v.46Zm.324 6.631h.972l6-8.727h-.972l-6 8.727Zm4.892-2.097c0-.528.239-1.022.836-1.022.613 0 .818.494.818 1.022v.461c0 .528-.222 1.022-.818 1.022-.614 0-.836-.494-.836-1.022v-.461Zm-4.346-4.994c0-.528.238-1.023.835-1.023.614 0 .818.495.818 1.023v.46c0 .529-.221 1.023-.818 1.023-.614 0-.835-.494-.835-1.023v-.46Z" fill="#007B6E"/><path d="M24 181a6 6 0 0 1 6-6h191a6 6 0 0 1 6 6v200a6 6 0 0 1-6 6H30a6 6 0 0 1-6-6V181Z" fill="#fff"/><path fill-rule="evenodd" clip-rule="evenodd" d="M221 176H30a5 5 0 0 0-5 5v200a5 5 0 0 0 5 5h191a5 5 0 0 0 5-5V181a5 5 0 0 0-5-5Zm-191-1a6 6 0 0 0-6 6v200a6 6 0 0 0 6 6h191a6 6 0 0 0 6-6V181a6 6 0 0 0-6-6H30Z" fill="#E0E1E9"/><path d="M45.575 195.129c-.348-2.178-2.053-3.45-4.206-3.45-2.635 0-4.578 1.973-4.578 5.23 0 3.256 1.934 5.23 4.578 5.23 2.238 0 3.873-1.402 4.206-3.416l-1.55-.005c-.264 1.303-1.358 2.019-2.646 2.019-1.745 0-3.062-1.337-3.062-3.828 0-2.471 1.312-3.828 3.067-3.828 1.298 0 2.387.731 2.64 2.048h1.551ZM47.294 202h1.487v-4.664c0-.999.77-1.72 1.824-1.72.309 0 .657.055.776.09v-1.422a6.003 6.003 0 0 0-.632-.035c-.894 0-1.66.507-1.938 1.327h-.08v-1.213h-1.437V202Zm7.527.169c1.263 0 1.974-.642 2.257-1.213h.06V202h1.452v-5.071c0-2.223-1.75-2.665-2.963-2.665-1.383 0-2.655.557-3.152 1.949l1.397.318c.218-.542.775-1.064 1.775-1.064.959 0 1.451.502 1.451 1.367v.035c0 .542-.557.532-1.929.691-1.447.169-2.928.547-2.928 2.282 0 1.501 1.129 2.327 2.58 2.327Zm.323-1.193c-.84 0-1.446-.378-1.446-1.114 0-.796.706-1.079 1.566-1.193.482-.065 1.625-.194 1.84-.408v.984c0 .905-.722 1.731-1.96 1.731ZM62.225 202h1.511l1.552-5.514h.114L66.953 202h1.516l2.243-7.637h-1.537l-1.486 5.583h-.075l-1.491-5.583h-1.536l-1.502 5.608h-.074l-1.497-5.608h-1.536L62.225 202Zm11.384-10.182h-1.487V202h1.487v-10.182Zm5.291 10.336c1.665 0 2.844-.82 3.182-2.063l-1.407-.254c-.269.721-.915 1.089-1.76 1.089-1.273 0-2.128-.825-2.168-2.297h5.43v-.527c0-2.759-1.651-3.838-3.382-3.838-2.127 0-3.53 1.621-3.53 3.967 0 2.372 1.383 3.923 3.635 3.923Zm-2.148-4.639c.06-1.083.845-2.023 2.053-2.023 1.154 0 1.91.855 1.914 2.023h-3.967Zm9.932 4.634c1.392 0 1.94-.85 2.208-1.337h.124V202h1.452v-10.182H88.98v3.783h-.09c-.268-.472-.775-1.337-2.197-1.337-1.844 0-3.202 1.457-3.202 3.932 0 2.471 1.338 3.953 3.192 3.953Zm.328-1.268c-1.327 0-2.018-1.168-2.018-2.699 0-1.517.676-2.655 2.018-2.655 1.298 0 1.994 1.059 1.994 2.655 0 1.605-.711 2.699-1.994 2.699ZM96.414 202h1.536v-3.58h2.088c2.361 0 3.53-1.427 3.53-3.306 0-1.874-1.159-3.296-3.525-3.296h-3.63V202Zm1.536-4.882v-3.983h1.929c1.521 0 2.143.826 2.143 1.979s-.622 2.004-2.123 2.004h-1.95Zm9.453 5.051c1.263 0 1.974-.642 2.257-1.213h.06V202h1.452v-5.071c0-2.223-1.75-2.665-2.963-2.665-1.382 0-2.655.557-3.152 1.949l1.397.318c.218-.542.775-1.064 1.775-1.064.959 0 1.451.502 1.451 1.367v.035c0 .542-.557.532-1.929.691-1.446.169-2.928.547-2.928 2.282 0 1.501 1.129 2.327 2.58 2.327Zm.323-1.193c-.84 0-1.446-.378-1.446-1.114 0-.796.706-1.079 1.566-1.193.482-.065 1.625-.194 1.839-.408v.984c0 .905-.721 1.731-1.959 1.731Zm8.627 4.046c1.944 0 3.446-.889 3.446-2.853v-7.806h-1.457v1.238h-.109c-.264-.472-.791-1.337-2.213-1.337-1.844 0-3.201 1.457-3.201 3.888 0 2.436 1.387 3.733 3.191 3.733 1.402 0 1.944-.79 2.213-1.277h.094v1.501c0 1.198-.82 1.715-1.949 1.715-1.238 0-1.72-.621-1.983-1.059l-1.278.527c.403.935 1.422 1.73 3.246 1.73Zm-.015-4.37c-1.327 0-2.018-1.019-2.018-2.52 0-1.467.676-2.605 2.018-2.605 1.298 0 1.994 1.059 1.994 2.605 0 1.576-.711 2.52-1.994 2.52Zm8.745 1.502c1.666 0 2.844-.82 3.182-2.063l-1.407-.254c-.268.721-.914 1.089-1.76 1.089-1.272 0-2.127-.825-2.167-2.297h5.429v-.527c0-2.759-1.651-3.838-3.381-3.838-2.128 0-3.53 1.621-3.53 3.967 0 2.372 1.382 3.923 3.634 3.923Zm-2.147-4.639c.059-1.083.845-2.023 2.053-2.023 1.153 0 1.909.855 1.914 2.023h-3.967Zm12.795-1.287c-.308-1.188-1.238-1.964-2.888-1.964-1.725 0-2.948.91-2.948 2.262 0 1.084.656 1.805 2.088 2.123l1.292.283c.736.164 1.079.492 1.079.97 0 .591-.631 1.054-1.606 1.054-.889 0-1.461-.383-1.64-1.134l-1.437.219c.249 1.352 1.372 2.113 3.087 2.113 1.845 0 3.123-.98 3.123-2.362 0-1.078-.687-1.745-2.089-2.068l-1.213-.278c-.84-.199-1.203-.482-1.198-1-.005-.586.632-1.004 1.477-1.004.925 0 1.352.512 1.526 1.024l1.347-.238Z" fill="#6C6E79"/><path d="M42.228 233.189c3.104 0 5.323-1.707 5.317-4.068.006-1.721-1.087-2.949-3.117-3.205v-.108c1.545-.277 2.61-1.37 2.604-2.922.007-2.179-1.903-3.893-4.764-3.893-2.833 0-4.965 1.66-5.006 4.048h2.8c.034-1.052.999-1.734 2.193-1.734 1.18 0 1.97.716 1.963 1.755.007 1.086-.917 1.821-2.247 1.821h-1.288v2.146h1.288c1.566 0 2.544.783 2.537 1.896.007 1.1-.937 1.855-2.273 1.855-1.29 0-2.254-.674-2.308-1.686h-2.942c.048 2.415 2.207 4.095 5.243 4.095Zm10.178-2.078h-2.375l-.034.756c-.08 1.835-.607 3.717-.803 4.507h1.863c.323-.817 1.093-2.733 1.275-4.521l.074-.742Zm7.537 2.078c3.076 0 5.168-2.004 5.161-4.797.007-2.645-1.842-4.548-4.331-4.548-1.215 0-2.26.506-2.747 1.188h-.08l.357-3.461h6.039v-2.389h-8.448l-.654 7.287 2.597.466c.425-.574 1.249-.932 2.065-.932 1.39.007 2.389 1.013 2.389 2.463 0 1.437-.979 2.429-2.348 2.429-1.16 0-2.099-.729-2.166-1.801h-2.834c.054 2.388 2.139 4.095 5 4.095Zm12.617.115c3.474 0 5.573-2.645 5.58-7.199.006-4.521-2.119-7.112-5.58-7.112-3.468 0-5.573 2.584-5.58 7.112-.014 4.541 2.098 7.192 5.58 7.199Zm0-2.422c-1.586 0-2.611-1.593-2.605-4.777.007-3.138 1.026-4.717 2.605-4.717 1.572 0 2.597 1.579 2.597 4.717.007 3.184-1.018 4.777-2.597 4.777Zm13.08 2.422c3.476 0 5.574-2.645 5.58-7.199.008-4.521-2.118-7.112-5.58-7.112-3.467 0-5.572 2.584-5.58 7.112-.013 4.541 2.1 7.192 5.58 7.199Zm0-2.422c-1.585 0-2.61-1.593-2.604-4.777.007-3.138 1.026-4.717 2.605-4.717 1.572 0 2.597 1.579 2.597 4.717.007 3.184-1.018 4.777-2.597 4.777Z" fill="#008FF8"/><path fill-rule="evenodd" clip-rule="evenodd" d="M36 245h10v16H36v-16Z" fill="#59DDAA"/><path fill-rule="evenodd" clip-rule="evenodd" d="M47 245h10v16H47v-16Z" fill="#FF8786"/><path fill-rule="evenodd" clip-rule="evenodd" d="M58 245h130v16H58v-16Z" fill="#FFB26E"/><path fill-rule="evenodd" clip-rule="evenodd" d="M189 245h16v16h-16v-16Z" fill="#8ECDFF"/><path fill-rule="evenodd" clip-rule="evenodd" d="M206 245h9v16h-9v-16Z" fill="#C4C7CF"/><path d="M48 278a6 6 0 1 1-12 0 6 6 0 0 1 12 0Z" fill="#59DDAA"/><path d="M57.057 282h1.056v-3.904h4.654V282h1.057v-8.728h-1.057v3.887h-4.654v-3.887h-1.056V282Zm11.49.136c1.33 0 2.302-.665 2.608-1.653l-.971-.273c-.256.682-.848 1.023-1.637 1.023-1.18 0-1.994-.763-2.04-2.165h4.75v-.426c0-2.438-1.448-3.273-2.812-3.273-1.773 0-2.949 1.398-2.949 3.409 0 2.012 1.16 3.358 3.051 3.358Zm-2.04-3.937c.067-1.019.788-1.927 1.938-1.927 1.091 0 1.79.819 1.79 1.927h-3.729Zm8.207 3.954c1.142 0 1.738-.613 1.943-1.04h.05V282h1.007v-4.313c0-2.079-1.586-2.318-2.42-2.318-.99 0-2.114.341-2.626 1.534l.955.341c.221-.477.745-.989 1.704-.989.925 0 1.38.49 1.38 1.33v.034c0 .486-.493.443-1.687.597-1.214.157-2.54.426-2.54 1.926 0 1.278.99 2.011 2.234 2.011Zm.153-.903c-.801 0-1.38-.358-1.38-1.057 0-.767.698-1.006 1.482-1.108.426-.051 1.569-.17 1.739-.375v.92c0 .819-.648 1.62-1.841 1.62Zm5.688-7.978h-1.006V282h1.006v-8.728Zm4.688 2.182h-1.397v-1.568H82.84v1.568h-.989v.853h.989v4.09c0 1.143.92 1.688 1.773 1.688a2.1 2.1 0 0 0 .75-.119l-.205-.904c-.085.017-.221.051-.443.051-.443 0-.87-.136-.87-.988v-3.818h1.398v-.853Zm2.66 2.608c0-1.142.728-1.79 1.721-1.79.946 0 1.517.597 1.517 1.637V282h1.006v-4.159c0-1.684-.895-2.472-2.233-2.472-1.031 0-1.62.43-1.926 1.108h-.085v-3.205h-1.006V282h1.005v-3.938Zm6.497 6.392c.908 0 1.547-.481 1.926-1.5l2.787-7.483-1.1-.017-1.806 5.216h-.068l-1.807-5.216H93.24l2.42 6.58-.187.511c-.367.997-.818 1.091-1.551.904l-.256.886c.102.051.392.119.733.119Z" fill="#484A54"/><path d="M48 300a6 6 0 1 1-12 0 6 6 0 0 1 12 0Z" fill="#FF8786"/><path d="M57.057 304h3.153c2.063 0 2.915-1.006 2.915-2.318 0-1.381-.955-2.131-1.756-2.182v-.085c.75-.205 1.415-.699 1.415-1.824 0-1.279-.852-2.319-2.676-2.319h-3.051V304Zm1.056-.938v-3.034h2.148c1.142 0 1.858.767 1.858 1.654 0 .767-.528 1.38-1.909 1.38h-2.096Zm0-3.954v-2.898h1.995c1.159 0 1.67.614 1.67 1.381 0 .92-.75 1.517-1.704 1.517h-1.96ZM64.725 304h1.006v-4.142c0-.887.699-1.534 1.653-1.534.269 0 .546.051.614.068v-1.023c-.115-.008-.38-.017-.529-.017-.784 0-1.466.443-1.704 1.091h-.068v-.989h-.972V304Zm6.925.136c1.772 0 2.966-1.346 2.966-3.375 0-2.045-1.194-3.392-2.966-3.392-1.773 0-2.966 1.347-2.966 3.392 0 2.029 1.193 3.375 2.966 3.375Zm0-.903c-1.347 0-1.96-1.159-1.96-2.472 0-1.312.613-2.489 1.96-2.489 1.346 0 1.96 1.177 1.96 2.489 0 1.313-.614 2.472-1.96 2.472Zm4.5.767h1.006v-2.451l.704-.652L80.31 304h1.278l-2.97-3.75 2.766-2.796h-1.245l-2.863 2.915h-.12v-5.097h-1.005V304Zm9.003.136c1.33 0 2.301-.665 2.608-1.653l-.972-.273c-.255.682-.848 1.023-1.636 1.023-1.18 0-1.994-.763-2.041-2.165h4.751v-.426c0-2.438-1.449-3.273-2.812-3.273-1.773 0-2.95 1.398-2.95 3.409 0 2.012 1.16 3.358 3.052 3.358Zm-2.041-3.937c.068-1.019.788-1.927 1.939-1.927 1.09 0 1.79.819 1.79 1.927h-3.73Zm7.287-.137c0-1.142.707-1.79 1.67-1.79.933 0 1.5.61 1.5 1.637V304h1.006v-4.159c0-1.671-.89-2.472-2.216-2.472-.989 0-1.602.443-1.91 1.108h-.084v-1.023h-.972V304h1.006v-3.938Z" fill="#484A54"/><path d="M48 322a6 6 0 1 1-12 0 6 6 0 0 1 12 0Z" fill="#FFB26E"/><path d="M57.057 326h1.056v-3.903h4.654V326h1.057v-8.727h-1.057v3.886h-4.654v-3.886h-1.056V326Zm10.673.153c1.141 0 1.738-.613 1.942-1.039h.052V326h1.005v-4.312c0-2.08-1.585-2.319-2.42-2.319-.989 0-2.114.341-2.625 1.534l.954.341c.222-.477.746-.988 1.705-.988.925 0 1.38.49 1.38 1.329v.034c0 .486-.494.443-1.687.597-1.214.158-2.54.426-2.54 1.926 0 1.278.989 2.011 2.233 2.011Zm.153-.903c-.801 0-1.381-.358-1.381-1.057 0-.767.699-1.005 1.483-1.108.426-.051 1.568-.17 1.739-.375v.921c0 .818-.648 1.619-1.841 1.619Zm9.8-5.795h-1.091l-1.807 5.215h-.068l-1.807-5.215h-1.09L74.24 326h1.022l2.42-6.545Zm3.837 6.681c1.33 0 2.301-.664 2.608-1.653l-.972-.273c-.255.682-.848 1.023-1.636 1.023-1.18 0-1.994-.763-2.041-2.165h4.751v-.426c0-2.437-1.449-3.273-2.812-3.273-1.773 0-2.95 1.398-2.95 3.409 0 2.012 1.16 3.358 3.052 3.358Zm-2.041-3.937c.068-1.019.788-1.926 1.939-1.926 1.09 0 1.79.818 1.79 1.926h-3.73ZM89.135 326h1.006v-6.545h-1.006V326Zm.511-7.636c.392 0 .716-.307.716-.682 0-.375-.323-.682-.715-.682-.393 0-.716.307-.716.682 0 .375.323.682.716.682Zm6.974 2.556c-.316-.929-1.024-1.551-2.319-1.551-1.38 0-2.404.784-2.404 1.892 0 .904.537 1.509 1.74 1.79l1.09.256c.66.153.972.469.972.92 0 .563-.597 1.023-1.534 1.023-.823 0-1.339-.354-1.518-1.057l-.954.239c.234 1.112 1.15 1.704 2.489 1.704 1.52 0 2.556-.831 2.556-1.96 0-.912-.57-1.487-1.738-1.773l-.972-.238c-.775-.192-1.125-.452-1.125-.955 0-.562.597-.971 1.398-.971.878 0 1.24.485 1.415.937l.903-.256Zm6.269 0c-.316-.929-1.023-1.551-2.319-1.551-1.38 0-2.403.784-2.403 1.892 0 .904.537 1.509 1.739 1.79l1.091.256c.66.153.971.469.971.92 0 .563-.596 1.023-1.534 1.023-.822 0-1.338-.354-1.517-1.057l-.954.239c.234 1.112 1.15 1.704 2.488 1.704 1.521 0 2.557-.831 2.557-1.96 0-.912-.571-1.487-1.739-1.773l-.971-.238c-.776-.192-1.125-.452-1.125-.955 0-.562.596-.971 1.397-.971.878 0 1.241.485 1.415.937l.904-.256Zm5.758 2.404c0 1.227-.938 1.79-1.688 1.79-.835 0-1.431-.614-1.431-1.569v-4.09h-1.006v4.159c0 1.67.886 2.471 2.113 2.471.989 0 1.637-.528 1.944-1.193h.068V326h1.006v-6.545h-1.006v3.869Zm5.592 2.812c1.329 0 2.301-.664 2.608-1.653l-.972-.273c-.256.682-.848 1.023-1.636 1.023-1.181 0-1.995-.763-2.041-2.165h4.751v-.426c0-2.437-1.449-3.273-2.812-3.273-1.773 0-2.949 1.398-2.949 3.409 0 2.012 1.159 3.358 3.051 3.358Zm-2.041-3.937c.068-1.019.788-1.926 1.939-1.926 1.09 0 1.789.818 1.789 1.926h-3.728Zm10.917-1.279c-.315-.929-1.022-1.551-2.318-1.551-1.381 0-2.403.784-2.403 1.892 0 .904.537 1.509 1.738 1.79l1.091.256c.661.153.972.469.972.92 0 .563-.597 1.023-1.534 1.023-.823 0-1.338-.354-1.517-1.057l-.955.239c.234 1.112 1.151 1.704 2.489 1.704 1.521 0 2.557-.831 2.557-1.96 0-.912-.571-1.487-1.739-1.773l-.972-.238c-.775-.192-1.125-.452-1.125-.955 0-.562.597-.971 1.398-.971.878 0 1.24.485 1.415.937l.903-.256Z" fill="#484A54"/><path d="M48 344a6 6 0 1 1-12 0 6 6 0 0 1 12 0Z" fill="#8ECDFF"/><path d="M57.057 348h1.056v-3.409h1.91c.076 0 .149 0 .221-.004L62.085 348h1.227l-1.973-3.605c1.113-.379 1.632-1.287 1.632-2.446 0-1.543-.92-2.676-2.965-2.676h-2.95V348Zm1.056-4.364v-3.426h1.858c1.415 0 1.96.691 1.96 1.739s-.545 1.687-1.942 1.687h-1.875Zm9.157 4.5c1.33 0 2.301-.664 2.608-1.653l-.972-.273c-.255.682-.848 1.023-1.636 1.023-1.18 0-1.994-.763-2.041-2.165h4.751v-.426c0-2.437-1.449-3.273-2.812-3.273-1.773 0-2.95 1.398-2.95 3.409 0 2.012 1.16 3.358 3.052 3.358Zm-2.041-3.937c.068-1.019.788-1.926 1.939-1.926 1.09 0 1.79.818 1.79 1.926h-3.73Zm8.753 3.937c1.261 0 1.687-.784 1.909-1.142h.12V348h.97v-8.727h-1.005v3.221h-.085c-.222-.341-.614-1.125-1.892-1.125-1.654 0-2.796 1.313-2.796 3.375 0 2.08 1.142 3.392 2.779 3.392Zm.136-.903c-1.261 0-1.909-1.108-1.909-2.506 0-1.38.63-2.454 1.91-2.454 1.226 0 1.874.988 1.874 2.454 0 1.483-.665 2.506-1.875 2.506Zm4.845.767h1.006v-6.545h-1.006V348Zm.512-7.636c.392 0 .716-.307.716-.682 0-.375-.324-.682-.716-.682-.392 0-.716.307-.716.682 0 .375.324.682.716.682ZM81.81 348h1.007v-4.142c0-.886.698-1.534 1.653-1.534.269 0 .545.051.614.068v-1.023a10.22 10.22 0 0 0-.529-.017c-.784 0-1.466.443-1.704 1.091h-.069v-.988h-.971V348Zm7.01.136c1.33 0 2.302-.664 2.609-1.653l-.972-.273c-.255.682-.848 1.023-1.636 1.023-1.18 0-1.995-.763-2.041-2.165h4.751v-.426c0-2.437-1.449-3.273-2.812-3.273-1.773 0-2.95 1.398-2.95 3.409 0 2.012 1.16 3.358 3.052 3.358Zm-2.04-3.937c.068-1.019.788-1.926 1.939-1.926 1.09 0 1.79.818 1.79 1.926h-3.73Zm8.94 3.937c1.449 0 2.403-.886 2.574-2.045h-1.006c-.187.716-.784 1.142-1.568 1.142-1.193 0-1.96-.989-1.96-2.506 0-1.483.784-2.454 1.96-2.454.886 0 1.415.545 1.568 1.142h1.006c-.17-1.227-1.21-2.046-2.591-2.046-1.773 0-2.949 1.398-2.949 3.392 0 1.961 1.125 3.375 2.966 3.375Zm6.891-6.681h-1.398v-1.569h-1.006v1.569h-.988v.852h.988v4.091c0 1.142.921 1.687 1.773 1.687.375 0 .614-.068.75-.119l-.205-.904c-.085.018-.221.052-.443.052-.443 0-.869-.137-.869-.989v-3.818h1.398v-.852Zm6.032 1.465c-.316-.929-1.023-1.551-2.319-1.551-1.38 0-2.403.784-2.403 1.892 0 .904.537 1.509 1.739 1.79l1.091.256c.66.153.971.469.971.92 0 .563-.596 1.023-1.534 1.023-.822 0-1.338-.354-1.517-1.057l-.955.239c.235 1.112 1.151 1.704 2.489 1.704 1.521 0 2.557-.831 2.557-1.96 0-.912-.571-1.487-1.739-1.773l-.971-.238c-.776-.192-1.125-.452-1.125-.955 0-.562.596-.971 1.397-.971.878 0 1.24.485 1.415.937l.904-.256Z" fill="#484A54"/><path d="M48 366a6 6 0 1 1-12 0 6 6 0 0 1 12 0Z" fill="#C4C7CF"/><path d="M57.057 370h3.153c2.063 0 2.915-1.006 2.915-2.318 0-1.381-.955-2.131-1.756-2.182v-.085c.75-.205 1.415-.699 1.415-1.824 0-1.279-.852-2.319-2.676-2.319h-3.051V370Zm1.056-.938v-3.034h2.148c1.142 0 1.858.767 1.858 1.654 0 .767-.528 1.38-1.909 1.38h-2.096Zm0-3.954v-2.898h1.995c1.159 0 1.67.614 1.67 1.381 0 .92-.75 1.517-1.704 1.517h-1.96Zm7.617-3.836h-1.005V370h1.006v-8.728Zm4.502 8.864c1.772 0 2.966-1.346 2.966-3.375 0-2.045-1.194-3.392-2.966-3.392-1.773 0-2.966 1.347-2.966 3.392 0 2.029 1.193 3.375 2.966 3.375Zm0-.903c-1.347 0-1.96-1.159-1.96-2.472 0-1.312.613-2.489 1.96-2.489 1.346 0 1.96 1.177 1.96 2.489 0 1.313-.614 2.472-1.96 2.472Zm7.16.903c1.449 0 2.403-.886 2.574-2.045H78.96c-.187.716-.784 1.142-1.568 1.142-1.193 0-1.96-.989-1.96-2.506 0-1.483.784-2.455 1.96-2.455.886 0 1.415.546 1.568 1.143h1.006c-.17-1.228-1.21-2.046-2.591-2.046-1.773 0-2.949 1.398-2.949 3.392 0 1.96 1.125 3.375 2.966 3.375Zm4.044-.136h1.006v-2.451l.703-.652 2.45 3.103h1.278l-2.97-3.75 2.766-2.796h-1.245l-2.863 2.915h-.12v-5.097h-1.005V370Zm9.002.136c1.33 0 2.301-.665 2.608-1.653l-.972-.273c-.255.682-.848 1.023-1.636 1.023-1.18 0-1.994-.763-2.041-2.165h4.751v-.426c0-2.438-1.449-3.273-2.812-3.273-1.773 0-2.95 1.398-2.95 3.409 0 2.012 1.16 3.358 3.052 3.358Zm-2.041-3.937c.068-1.019.788-1.927 1.939-1.927 1.09 0 1.79.819 1.79 1.927h-3.73Zm8.753 3.937c1.261 0 1.687-.784 1.909-1.142h.12V370h.971v-8.728h-1.006v3.222h-.085c-.222-.341-.614-1.125-1.892-1.125-1.654 0-2.796 1.313-2.796 3.375 0 2.08 1.142 3.392 2.779 3.392Zm.136-.903c-1.261 0-1.909-1.108-1.909-2.506 0-1.381.63-2.455 1.909-2.455 1.227 0 1.875.989 1.875 2.455 0 1.483-.665 2.506-1.875 2.506Z" fill="#484A54"/><path d="M212.972 273.272h-1.057l-2.182 1.449v1.074l2.131-1.415h.051V282h1.057v-8.728Zm-5.273 28.938h4.108V304h1.005v-1.79h1.194v-.938h-1.194v-6h-1.278l-3.835 6.069v.869Zm4.108-.938h-2.966v-.068l2.898-4.585h.068v4.653Zm-25.955 24.847c1.692 0 2.949-1.061 2.949-2.488 0-1.108-.656-1.914-1.756-2.097v-.068c.882-.268 1.432-.993 1.432-1.977 0-1.236-.976-2.335-2.591-2.335-1.508 0-2.761.929-2.812 2.301h1.022c.039-.87.866-1.381 1.773-1.381.963 0 1.585.584 1.585 1.466 0 .92-.72 1.517-1.755 1.517H185v.937h.699c1.325 0 2.062.674 2.062 1.637 0 .925-.805 1.551-1.926 1.551-1.01 0-1.811-.52-1.875-1.364h-1.074c.064 1.373 1.274 2.301 2.966 2.301Zm5.939-1.312h-1.09l-.052.477c-.123 1.155-.366 2.306-.477 2.847h.767c.205-.58.639-1.892.784-2.864l.068-.46Zm4.467 1.312c1.692 0 2.949-1.061 2.949-2.488 0-1.108-.656-1.914-1.755-2.097v-.068c.882-.268 1.431-.993 1.431-1.977 0-1.236-.975-2.335-2.591-2.335-1.508 0-2.761.929-2.812 2.301h1.023c.038-.87.865-1.381 1.772-1.381.964 0 1.586.584 1.586 1.466 0 .92-.721 1.517-1.756 1.517h-.699v.937h.699c1.325 0 2.062.674 2.062 1.637 0 .925-.805 1.551-1.926 1.551-1.01 0-1.811-.52-1.875-1.364h-1.074c.064 1.373 1.275 2.301 2.966 2.301Zm7.419 0c1.662 0 2.881-1.227 2.881-2.897 0-1.692-1.176-2.932-2.778-2.932-.588 0-1.159.209-1.517.494h-.051l.306-2.574h3.648v-.937h-4.534l-.528 4.295.988.12c.362-.26.98-.448 1.517-.444 1.112.009 1.926.853 1.926 1.995 0 1.121-.784 1.943-1.858 1.943-.894 0-1.606-.575-1.687-1.364h-1.023c.064 1.33 1.21 2.301 2.71 2.301Zm7.352-8.965c-1.772-.022-2.914 1.312-2.914 2.914 0 1.688 1.244 2.898 2.744 2.898.903 0 1.67-.443 2.148-1.159h.068c0 2.148-.835 3.375-2.182 3.375-.92 0-1.483-.58-1.67-1.381h-1.04c.204 1.381 1.244 2.318 2.71 2.318 1.96 0 3.17-1.738 3.17-4.84 0-3.205-1.602-4.108-3.034-4.125Zm0 .937c1.091 0 1.892.938 1.892 1.96 0 1.04-.852 1.978-1.926 1.978-1.074 0-1.858-.87-1.858-1.961 0-1.091.818-1.977 1.892-1.977Zm-13.057 21.182h-1.057l-2.182 1.449v1.073l2.131-1.414h.051V348h1.057v-8.727Zm5.458 8.846c1.692 0 2.949-1.061 2.949-2.488 0-1.108-.656-1.914-1.755-2.097v-.068c.882-.269 1.431-.993 1.431-1.977 0-1.236-.975-2.336-2.591-2.336-1.508 0-2.761.929-2.812 2.301h1.023c.038-.869.865-1.38 1.772-1.38.963 0 1.586.584 1.586 1.466 0 .92-.721 1.517-1.756 1.517h-.699v.937h.699c1.325 0 2.062.674 2.062 1.637 0 .924-.805 1.551-1.926 1.551-1.01 0-1.811-.52-1.875-1.364h-1.074c.064 1.372 1.275 2.301 2.966 2.301Zm7.539 0c1.926 0 3.034-1.632 3.034-4.483 0-2.829-1.125-4.483-3.034-4.483-1.909 0-3.034 1.654-3.034 4.483 0 2.851 1.108 4.483 3.034 4.483Zm0-.937c-1.27 0-2.012-1.274-2.012-3.546 0-2.267.75-3.562 2.012-3.562 1.261 0 2.011 1.295 2.011 3.562 0 2.272-.741 3.546-2.011 3.546Zm-.168 22.937c1.764.022 2.915-1.308 2.915-2.932 0-1.687-1.249-2.897-2.744-2.897-.9 0-1.671.439-2.148 1.159h-.068c.004-2.127.831-3.358 2.182-3.358.92 0 1.474.579 1.67 1.363h1.04c-.213-1.355-1.245-2.301-2.71-2.301-1.965 0-3.171 1.739-3.171 4.824 0 3.226 1.602 4.125 3.034 4.142Zm0-.937c-1.095 0-1.896-.934-1.892-1.978.004-1.044.844-1.977 1.926-1.977 1.07 0 1.858.878 1.858 1.96 0 1.108-.822 1.995-1.892 1.995Z" fill="#006DCA"/><path d="M240.705 122.875h3.625V133h1.75v-10.125h3.63v-1.512h-9.005v1.512Zm12.558 4.943c0-1.392.881-2.188 2.091-2.188 1.17 0 1.869.745 1.869 2.023V133h1.699v-5.551c0-2.177-1.193-3.29-2.989-3.29-1.358 0-2.176.591-2.585 1.534h-.108v-4.33h-1.676V133h1.699v-5.182Zm11.687 5.358c1.904 0 3.25-.938 3.637-2.358l-1.608-.29c-.307.824-1.046 1.244-2.012 1.244-1.454 0-2.431-.943-2.477-2.625h6.205v-.602c0-3.153-1.887-4.386-3.864-4.386-2.432 0-4.034 1.852-4.034 4.534 0 2.71 1.579 4.483 4.153 4.483Zm-2.454-5.301c.068-1.239.966-2.313 2.346-2.313 1.319 0 2.182.978 2.188 2.313h-4.534ZM270.58 133h1.698v-5.381c0-1.176.824-1.994 1.79-1.994.943 0 1.597.625 1.597 1.574V133h1.693v-5.563c0-1.051.642-1.812 1.75-1.812.898 0 1.636.5 1.636 1.682V133h1.699v-5.853c0-1.994-1.113-2.988-2.693-2.988-1.256 0-2.199.602-2.619 1.534h-.091c-.381-.955-1.182-1.534-2.347-1.534-1.153 0-2.011.574-2.375 1.534h-.108v-1.421h-1.63V133Zm16.68.193c1.443 0 2.256-.733 2.58-1.386h.068V133h1.659v-5.796c0-2.539-2-3.045-3.387-3.045-1.579 0-3.034.636-3.602 2.227l1.597.364c.25-.62.886-1.216 2.028-1.216 1.097 0 1.659.574 1.659 1.562v.04c0 .619-.636.608-2.204.79-1.654.193-3.347.625-3.347 2.608 0 1.716 1.29 2.659 2.949 2.659Zm.369-1.364c-.96 0-1.653-.432-1.653-1.272 0-.91.807-1.233 1.79-1.364.551-.074 1.858-.222 2.102-.466v1.125c0 1.034-.824 1.977-2.239 1.977Zm10.274-7.557h-1.789v-2.09h-1.699v2.09h-1.279v1.364h1.279v5.154c-.006 1.585 1.204 2.352 2.545 2.323.54-.005.904-.108 1.103-.181l-.307-1.404c-.114.023-.324.074-.597.074-.551 0-1.045-.182-1.045-1.165v-4.801h1.789v-1.364Zm1.88 8.728h1.699v-8.728h-1.699V133Zm.858-10.074c.585 0 1.074-.455 1.074-1.011 0-.557-.489-1.018-1.074-1.018-.591 0-1.074.461-1.074 1.018 0 .556.483 1.011 1.074 1.011Zm6.802 10.25c2.063 0 3.398-1.239 3.585-2.938h-1.653c-.216.944-.949 1.5-1.92 1.5-1.438 0-2.364-1.198-2.364-3.102 0-1.869.943-3.045 2.364-3.045 1.079 0 1.738.681 1.92 1.5h1.653c-.181-1.762-1.619-2.932-3.602-2.932-2.46 0-4.051 1.852-4.051 4.517 0 2.631 1.534 4.5 4.068 4.5Zm9.637-.176h1.698v-5.33c0-1.142.881-1.966 2.086-1.966.352 0 .75.063.886.103v-1.625a6.823 6.823 0 0 0-.722-.04c-1.022 0-1.897.579-2.215 1.517h-.091v-1.387h-1.642V133Zm9.589.176c1.903 0 3.25-.938 3.636-2.358l-1.608-.29c-.306.824-1.045 1.244-2.011 1.244-1.454 0-2.432-.943-2.477-2.625h6.204v-.602c0-3.153-1.886-4.386-3.863-4.386-2.432 0-4.034 1.852-4.034 4.534 0 2.71 1.579 4.483 4.153 4.483Zm-2.454-5.301c.068-1.239.965-2.313 2.346-2.313 1.318 0 2.182.978 2.188 2.313h-4.534Zm8.083 8.397h1.699v-4.63h.102c.307.557.932 1.528 2.523 1.528 2.114 0 3.648-1.693 3.648-4.517 0-2.829-1.557-4.494-3.665-4.494-1.619 0-2.204.988-2.506 1.528h-.142v-1.415h-1.659v12Zm1.665-7.636c0-1.824.796-3.034 2.279-3.034 1.539 0 2.312 1.301 2.312 3.034 0 1.75-.795 3.085-2.312 3.085-1.461 0-2.279-1.25-2.279-3.085Zm11.886 4.54c2.461 0 4.069-1.801 4.069-4.5 0-2.716-1.608-4.517-4.069-4.517-2.46 0-4.068 1.801-4.068 4.517 0 2.699 1.608 4.5 4.068 4.5Zm.006-1.426c-1.608 0-2.358-1.404-2.358-3.08 0-1.67.75-3.091 2.358-3.091 1.597 0 2.347 1.421 2.347 3.091 0 1.676-.75 3.08-2.347 3.08Zm5.959 1.25h1.699v-5.33c0-1.142.881-1.966 2.085-1.966.352 0 .75.063.886.103v-1.625a6.803 6.803 0 0 0-.721-.04c-1.023 0-1.898.579-2.216 1.517h-.091v-1.387h-1.642V133Zm10.73-8.728h-1.79v-2.09h-1.699v2.09h-1.278v1.364h1.278v5.154c-.005 1.585 1.205 2.352 2.546 2.323a3.26 3.26 0 0 0 1.102-.181l-.307-1.404c-.113.023-.324.074-.596.074-.551 0-1.046-.182-1.046-1.165v-4.801h1.79v-1.364Zm8.278 2.131c-.352-1.358-1.414-2.244-3.301-2.244-1.971 0-3.369 1.04-3.369 2.585 0 1.239.75 2.063 2.386 2.426l1.478.324c.841.188 1.233.563 1.233 1.108 0 .676-.722 1.205-1.836 1.205-1.017 0-1.67-.438-1.875-1.296l-1.642.25c.284 1.546 1.569 2.415 3.529 2.415 2.108 0 3.568-1.119 3.568-2.699 0-1.233-.784-1.994-2.386-2.364l-1.387-.318c-.96-.227-1.375-.551-1.369-1.142-.006-.67.721-1.148 1.687-1.148 1.057 0 1.546.586 1.745 1.171l1.539-.273Z" fill="#6C6E79"/><path d="M239 149a6 6 0 0 1 6-6h140a6 6 0 0 1 6 6v64a6 6 0 0 1-6 6H245a6 6 0 0 1-6-6v-64Z" fill="#fff"/><path fill-rule="evenodd" clip-rule="evenodd" d="M385 144H245a5 5 0 0 0-5 5v64a5 5 0 0 0 5 5h140a5 5 0 0 0 5-5v-64a5 5 0 0 0-5-5Zm-140-1a6 6 0 0 0-6 6v64a6 6 0 0 0 6 6h140a6 6 0 0 0 6-6v-64a6 6 0 0 0-6-6H245Z" fill="#E0E1E9"/><path d="M275 195c0 6.627-5.373 12-12 12s-12-5.373-12-12 5.373-12 12-12 12 5.373 12 12Zm-19.8 0a7.8 7.8 0 1 0 15.6 0 7.8 7.8 0 1 0-15.6 0Z" fill="#C5C5C5"/><path d="M263 183a12.003 12.003 0 0 1 10.692 6.552 11.995 11.995 0 0 1-.984 12.501 11.997 11.997 0 0 1-17.501 2.072 12 12 0 0 1-3.62-5.417l3.995-1.298a7.801 7.801 0 0 0 10.403 4.796 7.797 7.797 0 0 0 4.791-6.594A7.8 7.8 0 0 0 263 187.2V183Z" fill="#008FF8"/><path d="M260.575 163.129c-.348-2.178-2.053-3.45-4.206-3.45-2.635 0-4.578 1.973-4.578 5.23 0 3.256 1.933 5.23 4.578 5.23 2.238 0 3.873-1.402 4.206-3.416l-1.551-.005c-.263 1.303-1.357 2.019-2.645 2.019-1.745 0-3.062-1.337-3.062-3.828 0-2.471 1.312-3.828 3.067-3.828 1.298 0 2.387.73 2.64 2.048h1.551Zm1.719 6.871h1.487v-4.664c0-.999.77-1.72 1.824-1.72.309 0 .657.055.776.09v-1.422a6.008 6.008 0 0 0-.631-.035c-.895 0-1.661.507-1.939 1.327h-.08v-1.213h-1.437V170Zm7.527.169c1.263 0 1.974-.642 2.257-1.213h.06V170h1.452v-5.071c0-2.223-1.75-2.665-2.963-2.665-1.382 0-2.655.557-3.152 1.949l1.397.318c.218-.542.775-1.064 1.775-1.064.959 0 1.451.502 1.451 1.367v.035c0 .542-.557.532-1.929.691-1.446.169-2.928.547-2.928 2.282 0 1.501 1.129 2.327 2.58 2.327Zm.323-1.194c-.84 0-1.446-.377-1.446-1.113 0-.796.706-1.079 1.566-1.193.482-.065 1.625-.194 1.839-.408v.984c0 .905-.721 1.73-1.959 1.73Zm7.081 1.025h1.512l1.551-5.514h.114l1.551 5.514h1.517l2.242-7.637h-1.537l-1.486 5.583h-.075l-1.491-5.583h-1.536l-1.502 5.608h-.074l-1.497-5.608h-1.536l2.247 7.637Zm11.384-10.182h-1.487V170h1.487v-10.182Zm4.222 10.351c1.263 0 1.974-.642 2.257-1.213h.06V170h1.451v-5.071c0-2.223-1.75-2.665-2.963-2.665-1.382 0-2.654.557-3.152 1.949l1.397.318c.219-.542.776-1.064 1.775-1.064.96 0 1.452.502 1.452 1.367v.035c0 .542-.557.532-1.929.691-1.447.169-2.928.547-2.928 2.282 0 1.501 1.128 2.327 2.58 2.327Zm.323-1.194c-.84 0-1.447-.377-1.447-1.113 0-.796.706-1.079 1.566-1.193.483-.065 1.626-.194 1.84-.408v.984c0 .905-.721 1.73-1.959 1.73Zm5.545 1.025h1.451v-1.189h.125c.268.488.815 1.338 2.207 1.338 1.85 0 3.192-1.482 3.192-3.953 0-2.475-1.362-3.932-3.207-3.932-1.417 0-1.929.865-2.192 1.337h-.09v-3.783h-1.486V170Zm1.456-3.819c0-1.595.696-2.654 1.994-2.654 1.347 0 2.023 1.138 2.023 2.654 0 1.532-.696 2.7-2.023 2.7-1.278 0-1.994-1.094-1.994-2.7Zm7.188 3.819h1.487v-7.637h-1.487V170Zm.751-8.815c.512 0 .939-.398.939-.885s-.427-.89-.939-.89c-.517 0-.94.403-.94.89s.423.885.94.885Zm4.222-1.367h-1.487V170h1.487v-10.182Zm2 10.182h1.486v-7.637h-1.486V170Zm.75-8.815c.513 0 .94-.398.94-.885s-.427-.89-.94-.89c-.517 0-.939.403-.939.89s.422.885.939.885Zm6.301 1.178h-1.566v-1.829h-1.487v1.829h-1.118v1.193h1.118v4.51c-.005 1.387 1.054 2.058 2.227 2.033.473-.005.791-.094.965-.159l-.269-1.228c-.099.02-.283.065-.522.065-.482 0-.914-.159-.914-1.02v-4.201h1.566v-1.193Zm2.584 10.5c1.228 0 2.003-.641 2.446-1.844l3.157-8.641-1.606-.015-1.934 5.926h-.08L324 162.363h-1.591l2.795 7.736-.184.507c-.378 1.014-.91 1.099-1.726.875l-.358 1.218c.179.08.567.164 1.015.164Z" fill="#6C6E79"/><path d="M284.322 198h1.606l4.43-8.82v-1.362h-6.732v1.318h5.141v.074l-4.445 8.79Zm11.091.169c2.351 0 3.729-1.919 3.729-5.255 0-3.311-1.397-5.235-3.729-5.235-2.337 0-3.729 1.919-3.734 5.235 0 3.331 1.377 5.25 3.734 5.255Zm0-1.327c-1.377 0-2.208-1.382-2.208-3.928.005-2.535.836-3.932 2.208-3.932 1.367 0 2.202 1.397 2.202 3.932 0 2.546-.83 3.928-2.202 3.928Zm10.807-.751c.005 1.148.726 2.118 2.073 2.118 1.332 0 2.063-.97 2.063-2.118v-.537c0-1.153-.711-2.118-2.063-2.118-1.327 0-2.068.97-2.073 2.118v.537Zm-5.121-5.827c0 1.149.726 2.118 2.073 2.118 1.328 0 2.063-.964 2.059-2.118v-.537c.004-1.153-.711-2.118-2.059-2.118-1.322 0-2.073.965-2.073 2.118v.537Zm.418 7.736h1.188l7-10.182h-1.188l-7 10.182Zm5.861-2.446c.005-.572.254-1.124.915-1.124.686 0 .9.552.9 1.124v.537c0 .572-.234 1.123-.9 1.123-.676 0-.91-.556-.915-1.123v-.537Zm-5.116-5.827c0-.566.249-1.123.91-1.123.686 0 .9.552.9 1.123v.537c0 .572-.234 1.124-.9 1.124-.676 0-.91-.552-.91-1.124v-.537Z" fill="#484A54"/><path d="M559 233a6 6 0 0 1 6-6h140a6 6 0 0 1 6 6v64a6 6 0 0 1-6 6H565a6 6 0 0 1-6-6v-64Z" fill="#fff"/><path fill-rule="evenodd" clip-rule="evenodd" d="M705 228H565a5 5 0 0 0-5 5v64a5 5 0 0 0 5 5h140a5 5 0 0 0 5-5v-64a5 5 0 0 0-5-5Zm-140-1a6 6 0 0 0-6 6v64a6 6 0 0 0 6 6h140a6 6 0 0 0 6-6v-64a6 6 0 0 0-6-6H565Z" fill="#E0E1E9"/><path d="M595 279c0 6.627-5.373 12-12 12s-12-5.373-12-12 5.373-12 12-12 12 5.373 12 12Zm-19.8 0a7.8 7.8 0 1 0 15.6 0 7.8 7.8 0 1 0-15.6 0Z" fill="#C5C5C5"/><path d="M583 267a12.001 12.001 0 0 1 5.781 22.516 11.997 11.997 0 0 1-7.658 1.336 11.997 11.997 0 0 1-8.255-18.282l3.546 2.251A7.8 7.8 0 1 0 583 271.2V267Z" fill="#008FF8"/><path d="M607.42 282.139c2.118 0 3.614-1.203 3.624-2.853-.01-1.283-.91-2.362-2.048-2.566v-.059c.989-.239 1.66-1.169 1.67-2.268-.01-1.556-1.382-2.714-3.246-2.714-1.884 0-3.257 1.158-3.247 2.714-.01 1.094.662 2.029 1.671 2.268v.059c-1.159.204-2.058 1.283-2.049 2.566-.009 1.65 1.487 2.853 3.625 2.853Zm0-1.258c-1.273 0-2.078-.676-2.068-1.695-.01-1.059.865-1.815 2.068-1.815 1.183 0 2.058.756 2.068 1.815-.01 1.019-.81 1.695-2.068 1.695Zm0-4.738c-1.029 0-1.76-.651-1.75-1.62-.01-.955.696-1.586 1.75-1.586 1.034 0 1.74.631 1.75 1.586-.01.969-.736 1.62-1.75 1.62Zm5.191 3.868h4.828V282h1.466v-1.989h1.348v-1.302h-1.348v-6.891h-1.894l-4.4 6.95v1.243Zm4.838-1.302h-3.227v-.08l3.147-4.981h.08v5.061Zm9.851 1.382c.005 1.148.726 2.118 2.073 2.118 1.332 0 2.063-.97 2.063-2.118v-.537c0-1.153-.711-2.118-2.063-2.118-1.327 0-2.068.97-2.073 2.118v.537Zm-5.121-5.827c0 1.149.726 2.118 2.073 2.118 1.328 0 2.064-.964 2.059-2.118v-.537c.005-1.153-.711-2.118-2.059-2.118-1.322 0-2.073.965-2.073 2.118v.537Zm.418 7.736h1.188l7-10.182h-1.188l-7 10.182Zm5.861-2.446c.005-.572.254-1.124.915-1.124.686 0 .9.552.9 1.124v.537c0 .572-.234 1.123-.9 1.123-.676 0-.91-.556-.915-1.123v-.537Zm-5.115-5.827c0-.566.248-1.123.909-1.123.686 0 .9.552.9 1.123v.537c0 .572-.233 1.124-.9 1.124-.676 0-.909-.552-.909-1.124v-.537Z" fill="#484A54"/><path d="M573.655 243.818h-1.536V254h1.536v-10.182Zm3.604 5.648c0-1.218.746-1.915 1.78-1.915 1.009 0 1.621.662 1.621 1.77V254h1.486v-4.858c0-1.889-1.039-2.878-2.6-2.878-1.148 0-1.899.532-2.252 1.342h-.094v-1.243h-1.427V254h1.486v-4.534Zm10.446-3.103h-1.566v-1.829h-1.487v1.829h-1.119v1.193h1.119v4.51c-.005 1.387 1.054 2.058 2.227 2.033.473-.005.791-.094.965-.159l-.269-1.228c-.099.02-.283.065-.522.065-.482 0-.914-.159-.914-1.02v-4.201h1.566v-1.193Zm4.853 7.791c1.666 0 2.844-.821 3.182-2.063l-1.407-.254c-.269.721-.915 1.089-1.76 1.089-1.273 0-2.128-.826-2.168-2.297h5.429v-.527c0-2.759-1.65-3.838-3.38-3.838-2.128 0-3.53 1.621-3.53 3.967 0 2.372 1.382 3.923 3.634 3.923Zm-2.148-4.639c.06-1.084.846-2.023 2.054-2.023 1.153 0 1.909.855 1.914 2.023h-3.968Zm7.074 4.485h1.486v-4.664c0-.999.771-1.72 1.825-1.72.308 0 .656.055.775.09v-1.422a5.992 5.992 0 0 0-.631-.035c-.895 0-1.661.507-1.939 1.327h-.08v-1.213h-1.436V254Zm6.859-4.534c0-1.218.746-1.915 1.78-1.915 1.009 0 1.621.662 1.621 1.77V254h1.486v-4.858c0-1.889-1.039-2.878-2.6-2.878-1.148 0-1.899.532-2.252 1.342h-.094v-1.243h-1.427V254h1.486v-4.534Zm9.103 4.703c1.263 0 1.974-.642 2.257-1.213h.06V254h1.452v-5.071c0-2.223-1.75-2.665-2.963-2.665-1.382 0-2.655.557-3.152 1.949l1.397.318c.218-.542.775-1.064 1.775-1.064.959 0 1.451.502 1.451 1.367v.035c0 .542-.557.532-1.929.691-1.446.169-2.928.547-2.928 2.282 0 1.501 1.129 2.327 2.58 2.327Zm.323-1.194c-.84 0-1.446-.377-1.446-1.113 0-.796.706-1.079 1.566-1.193.482-.065 1.625-.194 1.839-.408v.984c0 .905-.721 1.73-1.959 1.73Zm6.912-9.157h-1.486V254h1.486v-10.182ZM626.505 254h6.15v-1.323h-4.613v-8.859h-1.537V254Zm7.783 0h1.487v-7.637h-1.487V254Zm.751-8.815c.512 0 .94-.398.94-.885s-.428-.89-.94-.89c-.517 0-.94.403-.94.89s.423.885.94.885Zm4.222 4.281c0-1.218.746-1.915 1.78-1.915 1.009 0 1.621.662 1.621 1.77V254h1.486v-4.858c0-1.889-1.039-2.878-2.6-2.878-1.148 0-1.899.532-2.252 1.342h-.094v-1.243h-1.427V254h1.486v-4.534Zm6.881 4.534h1.486v-2.71l.741-.741 2.595 3.451h1.825l-3.301-4.36 3.092-3.277h-1.78l-3.042 3.232h-.13v-5.777h-1.486V254Zm7.793 0h1.486v-7.637h-1.486V254Zm.751-8.815c.512 0 .939-.398.939-.885s-.427-.89-.939-.89c-.517 0-.94.403-.94.89s.423.885.94.885Zm4.222 4.281c0-1.218.745-1.915 1.78-1.915 1.009 0 1.62.662 1.62 1.77V254h1.487v-4.858c0-1.889-1.039-2.878-2.6-2.878-1.149 0-1.899.532-2.252 1.342h-.095v-1.243h-1.427V254h1.487v-4.534Zm10.082 7.556c1.944 0 3.445-.89 3.445-2.853v-7.806h-1.456v1.238h-.11c-.263-.472-.79-1.337-2.212-1.337-1.844 0-3.202 1.457-3.202 3.888 0 2.436 1.387 3.733 3.192 3.733 1.402 0 1.944-.79 2.212-1.277h.095v1.501c0 1.198-.82 1.715-1.949 1.715-1.238 0-1.72-.621-1.984-1.059l-1.277.527c.402.935 1.422 1.73 3.246 1.73Zm-.015-4.37c-1.327 0-2.018-1.019-2.018-2.52 0-1.467.676-2.605 2.018-2.605 1.298 0 1.994 1.059 1.994 2.605 0 1.576-.711 2.52-1.994 2.52Z" fill="#6C6E79"/><path d="M399 149a6 6 0 0 1 6-6h140a6 6 0 0 1 6 6v64a6 6 0 0 1-6 6H405a6 6 0 0 1-6-6v-64Z" fill="#fff"/><path fill-rule="evenodd" clip-rule="evenodd" d="M545 144H405a5 5 0 0 0-5 5v64a5 5 0 0 0 5 5h140a5 5 0 0 0 5-5v-64a5 5 0 0 0-5-5Zm-140-1a6 6 0 0 0-6 6v64a6 6 0 0 0 6 6h140a6 6 0 0 0 6-6v-64a6 6 0 0 0-6-6H405Z" fill="#E0E1E9"/><path d="M435 195c0 6.627-5.373 12-12 12s-12-5.373-12-12 5.373-12 12-12 12 5.373 12 12Zm-19.8 0a7.8 7.8 0 1 0 15.6 0 7.8 7.8 0 1 0-15.6 0Z" fill="#C5C5C5"/><path d="M423 183a12 12 0 1 1-4.417.843l1.546 3.905A7.8 7.8 0 1 0 423 187.2V183Z" fill="#008FF8"/><path d="M447.365 187.679c-2.138-.02-3.535 1.516-3.535 3.445.005 1.944 1.412 3.346 3.177 3.346 1.079 0 2.003-.527 2.525-1.382h.08c-.005 2.342-.885 3.709-2.376 3.709-.975 0-1.601-.597-1.8-1.467h-1.516c.223 1.646 1.496 2.809 3.316 2.809 2.366 0 3.848-2.033 3.848-5.598-.005-3.719-1.904-4.847-3.719-4.862Zm.005 1.293c1.178 0 2.048.999 2.048 2.117.005 1.134-.915 2.128-2.078 2.128-1.168 0-2.013-.934-2.018-2.113 0-1.183.88-2.132 2.048-2.132Zm5.296 7.039h4.827V198h1.467v-1.989h1.347v-1.302h-1.347v-6.891h-1.894l-4.4 6.95v1.243Zm4.837-1.302h-3.226v-.08l3.147-4.981h.079v5.061Zm9.851 1.382c.005 1.148.726 2.118 2.074 2.118 1.332 0 2.063-.97 2.063-2.118v-.537c0-1.153-.711-2.118-2.063-2.118-1.328 0-2.069.97-2.074 2.118v.537Zm-5.12-5.827c0 1.149.726 2.118 2.073 2.118 1.327 0 2.063-.964 2.058-2.118v-.537c.005-1.153-.711-2.118-2.058-2.118-1.323 0-2.073.965-2.073 2.118v.537Zm.417 7.736h1.188l7-10.182h-1.188l-7 10.182Zm5.862-2.446c.005-.572.253-1.124.915-1.124.686 0 .899.552.899 1.124v.537c0 .572-.233 1.123-.899 1.123-.677 0-.91-.556-.915-1.123v-.537Zm-5.116-5.827c0-.566.249-1.123.91-1.123.686 0 .9.552.9 1.123v.537c0 .572-.234 1.124-.9 1.124-.676 0-.91-.552-.91-1.124v-.537Z" fill="#484A54"/><path d="M412.119 170h1.536v-4.44h5.076V170h1.541v-10.182h-1.541v4.425h-5.076v-4.425h-1.536V170Zm9.888-8.86h3.172V170h1.531v-8.86h3.177v-1.322h-7.88v1.322Zm9.119 0h3.172V170h1.531v-8.86h3.177v-1.322h-7.88v1.322Zm9.622 8.86h1.536v-3.58h2.088c2.361 0 3.53-1.427 3.53-3.306 0-1.874-1.159-3.296-3.525-3.296h-3.629V170Zm1.536-4.882v-3.983h1.929c1.521 0 2.143.826 2.143 1.979s-.622 2.004-2.123 2.004h-1.949Zm12.972-2.625h1.481c-.044-1.631-1.486-2.814-3.554-2.814-2.044 0-3.61 1.168-3.61 2.923 0 1.417 1.015 2.247 2.65 2.69l1.203.328c1.089.288 1.929.646 1.929 1.551 0 .994-.949 1.65-2.257 1.65-1.183 0-2.167-.527-2.257-1.635H449.3c.099 1.844 1.526 2.983 3.808 2.983 2.392 0 3.769-1.258 3.769-2.983 0-1.835-1.636-2.546-2.929-2.864l-.994-.258c-.795-.204-1.854-.577-1.849-1.551 0-.866.79-1.507 2.043-1.507 1.168 0 1.999.547 2.108 1.487Z" fill="#6C6E79"/><path d="M239 233a6 6 0 0 1 6-6h140a6 6 0 0 1 6 6v64a6 6 0 0 1-6 6H245a6 6 0 0 1-6-6v-64Z" fill="#fff"/><path fill-rule="evenodd" clip-rule="evenodd" d="M385 228H245a5 5 0 0 0-5 5v64a5 5 0 0 0 5 5h140a5 5 0 0 0 5-5v-64a5 5 0 0 0-5-5Zm-140-1a6 6 0 0 0-6 6v64a6 6 0 0 0 6 6h140a6 6 0 0 0 6-6v-64a6 6 0 0 0-6-6H245Z" fill="#E0E1E9"/><path d="M275 279c0 6.627-5.373 12-12 12s-12-5.373-12-12 5.373-12 12-12 12 5.373 12 12Zm-19.8 0a7.8 7.8 0 1 0 15.6 0 7.8 7.8 0 1 0-15.6 0Z" fill="#C5C5C5"/><path d="M263 267c2.085 0 4.134.543 5.946 1.576a12.013 12.013 0 0 1 6.053 10.236 12.013 12.013 0 0 1-1.483 5.969l-3.681-2.023a7.804 7.804 0 0 0-.121-7.729A7.8 7.8 0 0 0 263 271.2V267Z" fill="#008FF8"/><path d="M287.524 282.139c2.078 0 3.605-1.243 3.6-2.933.005-1.288-.776-2.212-2.128-2.421v-.08c1.064-.273 1.755-1.108 1.75-2.252.005-1.496-1.223-2.774-3.182-2.774-1.869 0-3.371 1.129-3.421 2.784h1.487c.035-.935.915-1.501 1.914-1.501 1.039 0 1.72.631 1.715 1.571.005.984-.785 1.63-1.914 1.63h-.86v1.253h.86c1.412 0 2.227.716 2.227 1.74 0 .99-.86 1.661-2.058 1.661-1.103 0-1.964-.567-2.023-1.472h-1.561c.064 1.661 1.536 2.794 3.594 2.794Zm9.024 0c2.078 0 3.604-1.243 3.599-2.933.005-1.288-.776-2.212-2.128-2.421v-.08c1.064-.273 1.755-1.108 1.75-2.252.005-1.496-1.223-2.774-3.182-2.774-1.869 0-3.37 1.129-3.42 2.784h1.486c.035-.935.915-1.501 1.914-1.501 1.04 0 1.721.631 1.716 1.571.005.984-.786 1.63-1.914 1.63h-.86v1.253h.86c1.412 0 2.227.716 2.227 1.74 0 .99-.86 1.661-2.058 1.661-1.104 0-1.964-.567-2.024-1.472h-1.561c.065 1.661 1.536 2.794 3.595 2.794Zm10.793-2.048c.005 1.148.726 2.118 2.073 2.118 1.332 0 2.063-.97 2.063-2.118v-.537c0-1.153-.711-2.118-2.063-2.118-1.327 0-2.068.97-2.073 2.118v.537Zm-5.121-5.827c0 1.149.726 2.118 2.073 2.118 1.328 0 2.064-.964 2.059-2.118v-.537c.005-1.153-.711-2.118-2.059-2.118-1.322 0-2.073.965-2.073 2.118v.537Zm.418 7.736h1.188l7-10.182h-1.188l-7 10.182Zm5.861-2.446c.005-.572.254-1.124.915-1.124.686 0 .9.552.9 1.124v.537c0 .572-.234 1.123-.9 1.123-.676 0-.91-.556-.915-1.123v-.537Zm-5.115-5.827c0-.566.248-1.123.909-1.123.686 0 .9.552.9 1.123v.537c0 .572-.233 1.124-.9 1.124-.676 0-.909-.552-.909-1.124v-.537Z" fill="#484A54"/><path d="M260.575 247.129c-.348-2.178-2.053-3.45-4.206-3.45-2.635 0-4.578 1.973-4.578 5.23 0 3.256 1.933 5.23 4.578 5.23 2.238 0 3.873-1.402 4.206-3.416l-1.551-.005c-.263 1.303-1.357 2.019-2.645 2.019-1.745 0-3.062-1.337-3.062-3.828 0-2.471 1.312-3.828 3.067-3.828 1.298 0 2.387.73 2.64 2.048h1.551Zm4.936 7.025c2.153 0 3.56-1.576 3.56-3.938 0-2.376-1.407-3.952-3.56-3.952s-3.56 1.576-3.56 3.952c0 2.362 1.407 3.938 3.56 3.938Zm.005-1.248c-1.407 0-2.063-1.228-2.063-2.695 0-1.461.656-2.704 2.063-2.704 1.397 0 2.053 1.243 2.053 2.704 0 1.467-.656 2.695-2.053 2.695ZM270.73 254h1.486v-4.664c0-.999.771-1.72 1.825-1.72.308 0 .656.055.775.09v-1.422a5.992 5.992 0 0 0-.631-.035c-.895 0-1.66.507-1.939 1.327h-.079v-1.213h-1.437V254Zm8.391.154c1.665 0 2.843-.821 3.181-2.063l-1.407-.254c-.268.721-.914 1.089-1.759 1.089-1.273 0-2.128-.826-2.168-2.297h5.429v-.527c0-2.759-1.651-3.838-3.381-3.838-2.128 0-3.53 1.621-3.53 3.967 0 2.372 1.382 3.923 3.635 3.923Zm-2.148-4.639c.06-1.084.845-2.023 2.053-2.023 1.154 0 1.909.855 1.914 2.023h-3.967ZM289.864 254h1.551l2.143-7.627h.08L295.78 254h1.547l2.828-10.182h-1.62l-1.979 7.89h-.094l-2.064-7.89h-1.601l-2.063 7.885h-.094l-1.984-7.885h-1.616L289.864 254Zm14.112.154c1.666 0 2.844-.821 3.182-2.063l-1.407-.254c-.269.721-.915 1.089-1.76 1.089-1.273 0-2.128-.826-2.168-2.297h5.429v-.527c0-2.759-1.65-3.838-3.38-3.838-2.128 0-3.53 1.621-3.53 3.967 0 2.372 1.382 3.923 3.634 3.923Zm-2.148-4.639c.06-1.084.846-2.023 2.054-2.023 1.153 0 1.909.855 1.914 2.023h-3.968Zm7.193 4.485h1.452v-1.189h.124c.268.488.815 1.338 2.207 1.338 1.85 0 3.192-1.482 3.192-3.953 0-2.475-1.362-3.932-3.207-3.932-1.416 0-1.929.865-2.192 1.337h-.089v-3.783h-1.487V254Zm1.457-3.819c0-1.595.696-2.654 1.993-2.654 1.348 0 2.024 1.138 2.024 2.654 0 1.532-.696 2.7-2.024 2.7-1.277 0-1.993-1.094-1.993-2.7Zm11.902-6.363h-1.661L324.383 254h1.775l3.664-10.182h-1.66l-2.834 8.292h-.115l-2.833-8.292ZM331.173 254h1.487v-7.637h-1.487V254Zm.751-8.815c.512 0 .94-.398.94-.885s-.428-.89-.94-.89c-.517 0-.94.403-.94.89s.423.885.94.885Zm6.3 1.178h-1.566v-1.829h-1.486v1.829h-1.119v1.193h1.119v4.51c-.005 1.387 1.054 2.058 2.227 2.033.472-.005.79-.094.964-.159l-.268-1.228c-.1.02-.284.065-.522.065-.482 0-.915-.159-.915-1.02v-4.201h1.566v-1.193Zm3.867 7.806c1.263 0 1.973-.642 2.257-1.213h.06V254h1.451v-5.071c0-2.223-1.75-2.665-2.963-2.665-1.382 0-2.655.557-3.152 1.949l1.397.318c.219-.542.776-1.064 1.775-1.064.96 0 1.452.502 1.452 1.367v.035c0 .542-.557.532-1.929.691-1.447.169-2.928.547-2.928 2.282 0 1.501 1.128 2.327 2.58 2.327Zm.323-1.194c-.84 0-1.447-.377-1.447-1.113 0-.796.706-1.079 1.566-1.193.482-.065 1.626-.194 1.84-.408v.984c0 .905-.721 1.73-1.959 1.73Zm6.912-9.157h-1.487V254h1.487v-10.182Zm7.722 4.41c-.308-1.189-1.238-1.964-2.889-1.964-1.725 0-2.948.91-2.948 2.262 0 1.084.656 1.805 2.088 2.123l1.293.283c.736.164 1.079.492 1.079.97 0 .591-.632 1.054-1.606 1.054-.89 0-1.462-.383-1.641-1.134l-1.437.219c.249 1.352 1.373 2.113 3.088 2.113 1.844 0 3.122-.98 3.122-2.362 0-1.079-.686-1.745-2.088-2.068l-1.213-.278c-.84-.199-1.203-.483-1.198-1-.005-.586.631-1.004 1.476-1.004.925 0 1.353.512 1.527 1.024l1.347-.238Z" fill="#6C6E79"/><path d="M399 233a6 6 0 0 1 6-6h140a6 6 0 0 1 6 6v64a6 6 0 0 1-6 6H405a6 6 0 0 1-6-6v-64Z" fill="#fff"/><path fill-rule="evenodd" clip-rule="evenodd" d="M545 228H405a5 5 0 0 0-5 5v64a5 5 0 0 0 5 5h140a5 5 0 0 0 5-5v-64a5 5 0 0 0-5-5Zm-140-1a6 6 0 0 0-6 6v64a6 6 0 0 0 6 6h140a6 6 0 0 0 6-6v-64a6 6 0 0 0-6-6H405Z" fill="#E0E1E9"/><path d="M435 279c0 6.627-5.373 12-12 12s-12-5.373-12-12 5.373-12 12-12 12 5.373 12 12Zm-19.8 0a7.8 7.8 0 1 0 15.6 0 7.8 7.8 0 1 0-15.6 0Z" fill="#C5C5C5"/><path d="M423 267a11.997 11.997 0 0 1 11.711 9.382 12 12 0 1 1-20.957-5.031l3.236 2.677a7.802 7.802 0 0 0-.153 9.753 7.799 7.799 0 1 0 11.04-10.868A7.799 7.799 0 0 0 423 271.2V267Z" fill="#008FF8"/><path d="M447.42 282.139c2.118 0 3.614-1.203 3.624-2.853-.01-1.283-.91-2.362-2.048-2.566v-.059c.989-.239 1.66-1.169 1.67-2.268-.01-1.556-1.382-2.714-3.246-2.714-1.884 0-3.257 1.158-3.247 2.714-.01 1.094.662 2.029 1.671 2.268v.059c-1.159.204-2.058 1.283-2.049 2.566-.009 1.65 1.487 2.853 3.625 2.853Zm0-1.258c-1.273 0-2.078-.676-2.068-1.695-.01-1.059.865-1.815 2.068-1.815 1.183 0 2.058.756 2.068 1.815-.01 1.019-.81 1.695-2.068 1.695Zm0-4.738c-1.029 0-1.76-.651-1.75-1.62-.01-.955.696-1.586 1.75-1.586 1.034 0 1.74.631 1.75 1.586-.01.969-.736 1.62-1.75 1.62Zm8.96 5.996c2.128.02 3.54-1.511 3.535-3.465.005-1.949-1.412-3.346-3.177-3.346-1.074 0-2.004.517-2.526 1.377h-.074c.005-2.312.88-3.684 2.371-3.684.979 0 1.596.597 1.805 1.442h1.516c-.234-1.611-1.501-2.784-3.321-2.784-2.366 0-3.843 2.033-3.843 5.573-.005 3.749 1.904 4.872 3.714 4.887Zm-.005-1.292c-1.183 0-2.048-.995-2.048-2.138.005-1.139.909-2.133 2.083-2.133 1.163 0 2.018.94 2.013 2.118.005 1.203-.885 2.153-2.048 2.153Zm10.665-.756c.005 1.148.726 2.118 2.073 2.118 1.333 0 2.064-.97 2.064-2.118v-.537c0-1.153-.711-2.118-2.064-2.118-1.327 0-2.068.97-2.073 2.118v.537Zm-5.121-5.827c0 1.149.726 2.118 2.074 2.118 1.327 0 2.063-.964 2.058-2.118v-.537c.005-1.153-.711-2.118-2.058-2.118-1.323 0-2.074.965-2.074 2.118v.537Zm.418 7.736h1.188l7-10.182h-1.188l-7 10.182Zm5.862-2.446c.005-.572.253-1.124.914-1.124.686 0 .9.552.9 1.124v.537c0 .572-.233 1.123-.9 1.123-.676 0-.909-.556-.914-1.123v-.537Zm-5.116-5.827c0-.566.248-1.123.91-1.123.686 0 .899.552.899 1.123v.537c0 .572-.233 1.124-.899 1.124-.677 0-.91-.552-.91-1.124v-.537Z" fill="#484A54"/><path d="M417.672 246.493h1.481c-.044-1.631-1.486-2.814-3.554-2.814-2.044 0-3.61 1.168-3.61 2.923 0 1.417 1.014 2.247 2.65 2.69l1.203.328c1.089.288 1.929.646 1.929 1.551 0 .994-.949 1.651-2.257 1.651-1.183 0-2.167-.527-2.257-1.636h-1.541c.099 1.844 1.526 2.983 3.808 2.983 2.391 0 3.769-1.258 3.769-2.983 0-1.835-1.636-2.545-2.929-2.864l-.994-.258c-.796-.204-1.854-.577-1.849-1.551 0-.865.79-1.507 2.043-1.507 1.168 0 1.998.547 2.108 1.487Zm3.337 7.507h1.486v-7.636h-1.486V254Zm.751-8.815c.512 0 .939-.397.939-.885 0-.487-.427-.89-.939-.89-.517 0-.94.403-.94.89 0 .488.423.885.94.885Zm6.3 1.179h-1.566v-1.83h-1.487v1.83h-1.118v1.193h1.118v4.509c-.005 1.387 1.054 2.058 2.228 2.033.472-.005.79-.094.964-.159l-.268-1.228c-.1.02-.284.065-.522.065-.483 0-.915-.159-.915-1.019v-4.201h1.566v-1.193Zm4.853 7.79c1.666 0 2.844-.82 3.182-2.063l-1.407-.254c-.268.721-.914 1.089-1.76 1.089-1.272 0-2.127-.825-2.167-2.297h5.429v-.527c0-2.759-1.651-3.838-3.381-3.838-2.128 0-3.53 1.621-3.53 3.967 0 2.372 1.382 3.923 3.634 3.923Zm-2.147-4.638c.059-1.084.845-2.024 2.053-2.024 1.153 0 1.909.855 1.914 2.024h-3.967ZM441.663 254h1.537v-3.58h2.088c2.361 0 3.53-1.426 3.53-3.306 0-1.874-1.159-3.296-3.525-3.296h-3.63V254Zm1.537-4.882v-3.982h1.929c1.521 0 2.142.825 2.142 1.978 0 1.154-.621 2.004-2.122 2.004H443.2Zm10.495 5.036c1.665 0 2.843-.82 3.182-2.063l-1.407-.254c-.269.721-.915 1.089-1.76 1.089-1.273 0-2.128-.825-2.168-2.297h5.429v-.527c0-2.759-1.651-3.838-3.381-3.838-2.128 0-3.53 1.621-3.53 3.967 0 2.372 1.383 3.923 3.635 3.923Zm-2.148-4.638c.06-1.084.845-2.024 2.053-2.024 1.154 0 1.909.855 1.914 2.024h-3.967ZM458.62 254h1.487v-4.663c0-1 .77-1.721 1.824-1.721.309 0 .657.055.776.09v-1.422a6.008 6.008 0 0 0-.631-.035c-.895 0-1.661.507-1.939 1.328h-.08v-1.213h-1.437V254Zm9.459-7.636h-1.646v-.687c0-.676.279-1.044 1.004-1.044.309 0 .527.07.667.115l.348-1.203a3.559 3.559 0 0 0-1.243-.204c-1.208 0-2.267.706-2.267 2.138v.885h-1.179v1.193h1.179V254h1.491v-6.443h1.646v-1.193Zm4.449 7.79c2.153 0 3.56-1.576 3.56-3.937 0-2.377-1.407-3.953-3.56-3.953-2.152 0-3.559 1.576-3.559 3.953 0 2.361 1.407 3.937 3.559 3.937Zm.005-1.248c-1.407 0-2.063-1.228-2.063-2.694 0-1.462.656-2.705 2.063-2.705 1.397 0 2.054 1.243 2.054 2.705 0 1.466-.657 2.694-2.054 2.694Zm5.214 1.094h1.487v-4.663c0-1 .77-1.721 1.824-1.721.309 0 .657.055.776.09v-1.422a6.012 6.012 0 0 0-.632-.035c-.894 0-1.66.507-1.938 1.328h-.08v-1.213h-1.437V254Zm5.373 0h1.487v-4.708c0-1.029.721-1.745 1.566-1.745.825 0 1.397.547 1.397 1.377V254h1.481v-4.867c0-.92.562-1.586 1.532-1.586.785 0 1.431.437 1.431 1.471V254h1.487v-5.121c0-1.745-.974-2.615-2.357-2.615-1.098 0-1.924.527-2.291 1.342h-.08c-.333-.835-1.034-1.342-2.053-1.342-1.01 0-1.76.502-2.078 1.342h-.095v-1.242h-1.427V254Zm14.596.169c1.262 0 1.973-.641 2.257-1.213h.059V254h1.452v-5.071c0-2.222-1.75-2.665-2.963-2.665-1.382 0-2.655.557-3.152 1.949l1.397.318c.219-.542.776-1.064 1.775-1.064.959 0 1.452.502 1.452 1.367v.035c0 .542-.557.532-1.929.691-1.447.169-2.929.547-2.929 2.282 0 1.502 1.129 2.327 2.581 2.327Zm.323-1.193c-.84 0-1.447-.378-1.447-1.114 0-.795.706-1.079 1.566-1.193.482-.065 1.626-.194 1.84-.408v.985c0 .904-.721 1.73-1.959 1.73Zm6.912-3.51c0-1.218.745-1.914 1.779-1.914 1.01 0 1.621.661 1.621 1.77V254h1.487v-4.857c0-1.89-1.039-2.879-2.601-2.879-1.148 0-1.899.532-2.252 1.342h-.094v-1.242h-1.427V254h1.487v-4.534Zm10.097 4.688c1.805 0 2.973-1.084 3.137-2.57h-1.447c-.189.825-.83 1.312-1.68 1.312-1.258 0-2.068-1.049-2.068-2.714 0-1.636.825-2.665 2.068-2.665.944 0 1.521.597 1.68 1.312h1.447c-.159-1.541-1.417-2.565-3.152-2.565-2.153 0-3.545 1.621-3.545 3.953 0 2.301 1.343 3.937 3.56 3.937Zm8.018 0c1.665 0 2.844-.82 3.182-2.063l-1.407-.254c-.269.721-.915 1.089-1.76 1.089-1.273 0-2.128-.825-2.168-2.297h5.429v-.527c0-2.759-1.651-3.838-3.381-3.838-2.127 0-3.529 1.621-3.529 3.967 0 2.372 1.382 3.923 3.634 3.923Zm-2.148-4.638c.06-1.084.845-2.024 2.053-2.024 1.154 0 1.909.855 1.914 2.024h-3.967Z" fill="#6C6E79"/><path d="M239 317a6 6 0 0 1 6-6h140a6 6 0 0 1 6 6v64a6 6 0 0 1-6 6H245a6 6 0 0 1-6-6v-64Z" fill="#fff"/><path fill-rule="evenodd" clip-rule="evenodd" d="M385 312H245a5 5 0 0 0-5 5v64a5 5 0 0 0 5 5h140a5 5 0 0 0 5-5v-64a5 5 0 0 0-5-5Zm-140-1a6 6 0 0 0-6 6v64a6 6 0 0 0 6 6h140a6 6 0 0 0 6-6v-64a6 6 0 0 0-6-6H245Z" fill="#E0E1E9"/><path d="M287.365 355.679c-2.138-.02-3.535 1.516-3.535 3.445.005 1.944 1.412 3.346 3.177 3.346 1.079 0 2.003-.527 2.525-1.382h.08c-.005 2.342-.885 3.709-2.376 3.709-.975 0-1.601-.597-1.8-1.467h-1.516c.223 1.646 1.496 2.809 3.316 2.809 2.366 0 3.848-2.033 3.848-5.598-.005-3.719-1.904-4.847-3.719-4.862Zm.005 1.293c1.178 0 2.048.999 2.048 2.117.005 1.134-.915 2.128-2.078 2.128-1.168 0-2.013-.934-2.018-2.113 0-1.183.88-2.132 2.048-2.132Zm8.895-1.293c-2.138-.02-3.535 1.516-3.535 3.445.005 1.944 1.412 3.346 3.177 3.346 1.079 0 2.004-.527 2.526-1.382h.079c-.005 2.342-.885 3.709-2.376 3.709-.974 0-1.601-.597-1.8-1.467h-1.516c.224 1.646 1.496 2.809 3.316 2.809 2.366 0 3.848-2.033 3.848-5.598-.005-3.719-1.904-4.847-3.719-4.862Zm.005 1.293c1.179 0 2.049.999 2.049 2.117.005 1.134-.915 2.128-2.079 2.128-1.168 0-2.013-.934-2.018-2.113 0-1.183.88-2.132 2.048-2.132Zm10.825 7.119c.005 1.148.725 2.118 2.073 2.118 1.332 0 2.063-.97 2.063-2.118v-.537c0-1.153-.711-2.118-2.063-2.118-1.328 0-2.068.97-2.073 2.118v.537Zm-5.121-5.827c0 1.149.726 2.118 2.073 2.118 1.327 0 2.063-.964 2.058-2.118v-.537c.005-1.153-.711-2.118-2.058-2.118-1.322 0-2.073.965-2.073 2.118v.537Zm.418 7.736h1.188l7-10.182h-1.188l-7 10.182Zm5.861-2.446c.005-.572.254-1.124.915-1.124.686 0 .9.552.9 1.124v.537c0 .572-.234 1.123-.9 1.123-.676 0-.91-.556-.915-1.123v-.537Zm-5.116-5.827c0-.566.249-1.123.91-1.123.686 0 .9.552.9 1.123v.537c0 .572-.234 1.124-.9 1.124-.676 0-.91-.552-.91-1.124v-.537Z" fill="#484A54"/><path d="M275 363c0 6.627-5.373 12-12 12s-12-5.373-12-12 5.373-12 12-12 12 5.373 12 12Zm-19.8 0a7.8 7.8 0 1 0 15.6 0 7.8 7.8 0 1 0-15.6 0Z" fill="#C5C5C5"/><path d="M263 351a12 12 0 1 1-.753.024l.263 4.191a7.803 7.803 0 0 0-7.301 8.152A7.8 7.8 0 1 0 263 355.2V351Z" fill="#008FF8"/><path d="M252.119 327.818V338h1.461v-7.373h.095l3.003 7.358h1.213l3.003-7.353h.094V338h1.462v-10.182h-1.865l-3.241 7.915h-.12l-3.241-7.915h-1.864Zm14.667 10.351c1.263 0 1.974-.641 2.257-1.213h.06V338h1.452v-5.071c0-2.222-1.75-2.665-2.964-2.665-1.382 0-2.654.557-3.152 1.949l1.398.318c.218-.541.775-1.063 1.774-1.063.96 0 1.452.502 1.452 1.367v.034c0 .542-.557.532-1.929.692-1.447.169-2.928.546-2.928 2.282 0 1.501 1.128 2.326 2.58 2.326Zm.323-1.193c-.84 0-1.446-.378-1.446-1.114 0-.795.705-1.078 1.566-1.193.482-.064 1.625-.194 1.839-.407v.984c0 .905-.721 1.73-1.959 1.73Zm5.425 1.024h1.487v-4.663c0-.999.771-1.72 1.825-1.72a3.5 3.5 0 0 1 .775.089v-1.422a5.992 5.992 0 0 0-.631-.035c-.895 0-1.661.508-1.939 1.328h-.08v-1.213h-1.437V338Zm5.374 0h1.486v-2.709l.741-.741 2.595 3.45h1.825l-3.302-4.36 3.093-3.276h-1.78l-3.043 3.231h-.129v-5.777h-1.486V338Zm12.63-3.167c.005 1.298-.96 1.914-1.795 1.914-.92 0-1.556-.666-1.556-1.705v-4.678h-1.486v4.857c0 1.894 1.039 2.879 2.505 2.879 1.149 0 1.929-.607 2.282-1.422h.08V338h1.461v-7.636h-1.491v4.469Zm3.489 6.031h1.486v-4.052h.09c.268.487.815 1.337 2.207 1.337 1.849 0 3.192-1.481 3.192-3.952 0-2.476-1.362-3.933-3.207-3.933-1.417 0-1.929.865-2.192 1.338h-.125v-1.238h-1.451v10.5Zm1.456-6.682c0-1.596.696-2.655 1.994-2.655 1.347 0 2.023 1.139 2.023 2.655 0 1.531-.696 2.7-2.023 2.7-1.278 0-1.994-1.094-1.994-2.7Z" fill="#6C6E79"/><path d="M559 149a6 6 0 0 1 6-6h140a6 6 0 0 1 6 6v64a6 6 0 0 1-6 6H565a6 6 0 0 1-6-6v-64Z" fill="#fff"/><path fill-rule="evenodd" clip-rule="evenodd" d="M705 144H565a5 5 0 0 0-5 5v64a5 5 0 0 0 5 5h140a5 5 0 0 0 5-5v-64a5 5 0 0 0-5-5Zm-140-1a6 6 0 0 0-6 6v64a6 6 0 0 0 6 6h140a6 6 0 0 0 6-6v-64a6 6 0 0 0-6-6H565Z" fill="#E0E1E9"/><path d="M595 195c0 6.627-5.373 12-12 12s-12-5.373-12-12 5.373-12 12-12 12 5.373 12 12Zm-19.8 0a7.8 7.8 0 1 0 15.6 0 7.8 7.8 0 1 0-15.6 0Z" fill="#C5C5C5"/><path d="M583 183a12.003 12.003 0 0 1 11.157 7.583 11.993 11.993 0 0 1-2.942 13.165 12.005 12.005 0 0 1-13.324 2.11 11.999 11.999 0 0 1-6.867-11.611l4.191.263a7.803 7.803 0 0 0 9.005 8.194A7.8 7.8 0 0 0 583 187.2V183Z" fill="#008FF8"/><path d="M604.322 198h1.606l4.43-8.82v-1.362h-6.732v1.318h5.141v.074l-4.445 8.79Zm11.101.139c2.128.02 3.54-1.511 3.535-3.465.005-1.949-1.412-3.346-3.177-3.346-1.074 0-2.004.517-2.526 1.377h-.074c.005-2.312.88-3.684 2.371-3.684.979 0 1.596.597 1.805 1.442h1.516c-.234-1.611-1.501-2.784-3.321-2.784-2.366 0-3.843 2.033-3.843 5.573-.005 3.749 1.904 4.872 3.714 4.887Zm-.005-1.292c-1.183 0-2.048-.995-2.048-2.138.005-1.139.909-2.133 2.083-2.133 1.163 0 2.018.94 2.013 2.118.005 1.203-.885 2.153-2.048 2.153Zm10.665-.756c.005 1.148.726 2.118 2.073 2.118 1.333 0 2.064-.97 2.064-2.118v-.537c0-1.153-.711-2.118-2.064-2.118-1.327 0-2.068.97-2.073 2.118v.537Zm-5.121-5.827c0 1.149.726 2.118 2.074 2.118 1.327 0 2.063-.964 2.058-2.118v-.537c.005-1.153-.711-2.118-2.058-2.118-1.323 0-2.074.965-2.074 2.118v.537Zm.418 7.736h1.188l7-10.182h-1.188l-7 10.182Zm5.862-2.446c.004-.572.253-1.124.914-1.124.686 0 .9.552.9 1.124v.537c0 .572-.234 1.123-.9 1.123-.676 0-.91-.556-.914-1.123v-.537Zm-5.116-5.827c0-.566.248-1.123.91-1.123.686 0 .899.552.899 1.123v.537c0 .572-.233 1.124-.899 1.124-.677 0-.91-.552-.91-1.124v-.537Z" fill="#484A54"/><path d="M573.655 159.818h-1.536V170h1.536v-10.182Zm3.604 5.648c0-1.218.746-1.915 1.78-1.915 1.009 0 1.621.662 1.621 1.77V170h1.486v-4.858c0-1.889-1.039-2.878-2.6-2.878-1.148 0-1.899.532-2.252 1.342h-.094v-1.243h-1.427V170h1.486v-4.534Zm10.446-3.103h-1.566v-1.829h-1.487v1.829h-1.119v1.193h1.119v4.51c-.005 1.387 1.054 2.058 2.227 2.033.473-.005.791-.094.965-.159l-.269-1.228c-.099.02-.283.065-.522.065-.482 0-.914-.159-.914-1.02v-4.201h1.566v-1.193Zm4.853 7.791c1.666 0 2.844-.821 3.182-2.063l-1.407-.254c-.269.721-.915 1.089-1.76 1.089-1.273 0-2.128-.826-2.168-2.297h5.429v-.527c0-2.759-1.65-3.838-3.38-3.838-2.128 0-3.53 1.621-3.53 3.967 0 2.372 1.382 3.923 3.634 3.923Zm-2.148-4.639c.06-1.084.846-2.023 2.054-2.023 1.153 0 1.909.855 1.914 2.023h-3.968Zm7.074 4.485h1.486v-4.664c0-.999.771-1.72 1.825-1.72.308 0 .656.055.775.09v-1.422a5.992 5.992 0 0 0-.631-.035c-.895 0-1.661.507-1.939 1.327h-.08v-1.213h-1.436V170Zm6.859-4.534c0-1.218.746-1.915 1.78-1.915 1.009 0 1.621.662 1.621 1.77V170h1.486v-4.858c0-1.889-1.039-2.878-2.6-2.878-1.148 0-1.899.532-2.252 1.342h-.094v-1.243h-1.427V170h1.486v-4.534Zm9.103 4.703c1.263 0 1.974-.642 2.257-1.213h.06V170h1.452v-5.071c0-2.223-1.75-2.665-2.963-2.665-1.382 0-2.655.557-3.152 1.949l1.397.318c.218-.542.775-1.064 1.775-1.064.959 0 1.451.502 1.451 1.367v.035c0 .542-.557.532-1.929.691-1.446.169-2.928.547-2.928 2.282 0 1.501 1.129 2.327 2.58 2.327Zm.323-1.194c-.84 0-1.446-.377-1.446-1.113 0-.796.706-1.079 1.566-1.193.482-.065 1.625-.194 1.839-.408v.984c0 .905-.721 1.73-1.959 1.73Zm8.99-6.612h-1.566v-1.829h-1.486v1.829h-1.119v1.193h1.119v4.51c-.005 1.387 1.054 2.058 2.227 2.033.472-.005.79-.094.964-.159l-.268-1.228c-.099.02-.283.065-.522.065-.482 0-.915-.159-.915-1.02v-4.201h1.566v-1.193Zm1.645 7.637h1.486v-7.637h-1.486V170Zm.75-8.815c.512 0 .94-.398.94-.885s-.428-.89-.94-.89c-.517 0-.939.403-.939.89s.422.885.939.885Zm5.953 8.969c2.152 0 3.559-1.576 3.559-3.938 0-2.376-1.407-3.952-3.559-3.952-2.153 0-3.56 1.576-3.56 3.952 0 2.362 1.407 3.938 3.56 3.938Zm.005-1.248c-1.407 0-2.064-1.228-2.064-2.695 0-1.461.657-2.704 2.064-2.704 1.397 0 2.053 1.243 2.053 2.704 0 1.467-.656 2.695-2.053 2.695Zm6.7-3.44c0-1.218.746-1.915 1.78-1.915 1.009 0 1.621.662 1.621 1.77V170h1.486v-4.858c0-1.889-1.039-2.878-2.6-2.878-1.148 0-1.899.532-2.252 1.342h-.095v-1.243h-1.426V170h1.486v-4.534Zm9.103 4.703c1.263 0 1.974-.642 2.257-1.213h.06V170h1.451v-5.071c0-2.223-1.75-2.665-2.963-2.665-1.382 0-2.654.557-3.152 1.949l1.397.318c.219-.542.776-1.064 1.775-1.064.96 0 1.452.502 1.452 1.367v.035c0 .542-.557.532-1.929.691-1.447.169-2.928.547-2.928 2.282 0 1.501 1.128 2.327 2.58 2.327Zm.323-1.194c-.84 0-1.447-.377-1.447-1.113 0-.796.706-1.079 1.566-1.193.483-.065 1.626-.194 1.84-.408v.984c0 .905-.721 1.73-1.959 1.73Zm6.912-9.157h-1.487V170h1.487v-10.182Zm11.377 2.675h1.482c-.045-1.631-1.487-2.814-3.555-2.814-2.043 0-3.609 1.168-3.609 2.923 0 1.417 1.014 2.247 2.65 2.69l1.203.328c1.089.288 1.929.646 1.929 1.551 0 .994-.95 1.65-2.257 1.65-1.184 0-2.168-.527-2.257-1.635h-1.542c.1 1.844 1.527 2.983 3.809 2.983 2.391 0 3.768-1.258 3.768-2.983 0-1.835-1.636-2.546-2.928-2.864l-.994-.258c-.796-.204-1.855-.577-1.85-1.552 0-.865.791-1.506 2.043-1.506 1.169 0 1.999.547 2.108 1.487Zm3.457 7.507h6.443v-1.323h-4.907v-3.117h4.514v-1.317h-4.514v-3.103h4.847v-1.322h-6.383V170Zm17.28-5.091c0-3.257-1.949-5.23-4.584-5.23-2.645 0-4.589 1.973-4.589 5.23 0 3.251 1.944 5.23 4.589 5.23 2.635 0 4.584-1.974 4.584-5.23Zm-1.521 0c0 2.481-1.313 3.828-3.063 3.828-1.755 0-3.062-1.347-3.062-3.828s1.307-3.828 3.062-3.828c1.75 0 3.063 1.347 3.063 3.828Z" fill="#6C6E79"/><path d="M239 30a6 6 0 0 1 6-6h459a6 6 0 0 1 6 6v64a6 6 0 0 1-6 6H245a6 6 0 0 1-6-6V30Z" fill="#fff"/><path fill-rule="evenodd" clip-rule="evenodd" d="M704 25H245a5 5 0 0 0-5 5v64a5 5 0 0 0 5 5h459a5 5 0 0 0 5-5V30a5 5 0 0 0-5-5Zm-459-1a6 6 0 0 0-6 6v64a6 6 0 0 0 6 6h459a6 6 0 0 0 6-6V30a6 6 0 0 0-6-6H245Z" fill="#E0E1E9"/><path d="M252.119 51h6.443v-1.322h-4.907V46.56h4.514v-1.318h-4.514V42.14h4.847v-1.323h-6.383V51Zm8.316 0h1.486v-4.663c0-1 .771-1.72 1.825-1.72.308 0 .656.054.776.09v-1.423a6.058 6.058 0 0 0-.632-.035c-.895 0-1.66.508-1.939 1.328h-.079v-1.213h-1.437V51Zm5.373 0h1.486v-4.663c0-1 .771-1.72 1.825-1.72.308 0 .656.054.776.09v-1.423a6.058 6.058 0 0 0-.632-.035c-.895 0-1.66.508-1.939 1.328h-.079v-1.213h-1.437V51Zm8.316.154c2.153 0 3.56-1.576 3.56-3.937 0-2.377-1.407-3.953-3.56-3.953s-3.56 1.576-3.56 3.953c0 2.361 1.407 3.937 3.56 3.937Zm.005-1.248c-1.407 0-2.063-1.228-2.063-2.694 0-1.462.656-2.705 2.063-2.705 1.397 0 2.053 1.243 2.053 2.705 0 1.466-.656 2.694-2.053 2.694ZM279.343 51h1.487v-4.663c0-1 .77-1.72 1.824-1.72.308 0 .656.054.776.09v-1.423a6.043 6.043 0 0 0-.632-.035c-.895 0-1.66.508-1.939 1.328h-.079v-1.213h-1.437V51Zm11.095-5.772c-.308-1.188-1.237-1.964-2.888-1.964-1.725 0-2.948.91-2.948 2.262 0 1.084.656 1.805 2.088 2.123l1.292.284c.736.164 1.079.492 1.079.97 0 .59-.631 1.053-1.606 1.053-.889 0-1.461-.383-1.64-1.133l-1.437.218c.249 1.353 1.372 2.113 3.087 2.113 1.845 0 3.123-.98 3.123-2.361 0-1.079-.686-1.745-2.088-2.068l-1.214-.279c-.84-.199-1.203-.482-1.198-1-.005-.586.632-1.003 1.477-1.003.925 0 1.352.512 1.526 1.024l1.347-.239Z" fill="#6C6E79"/><path d="M259.194 83.248c4.084 0 7.005-2.246 6.996-5.353.009-2.264-1.43-3.88-4.102-4.217v-.142c2.033-.364 3.436-1.802 3.427-3.844.009-2.868-2.504-5.123-6.268-5.123-3.728 0-6.534 2.184-6.587 5.327h3.684c.045-1.385 1.314-2.282 2.885-2.282 1.554 0 2.593.941 2.584 2.309.009 1.429-1.207 2.397-2.956 2.397h-1.696v2.823h1.696c2.059 0 3.347 1.03 3.338 2.495.009 1.447-1.234 2.44-2.992 2.44-1.696 0-2.965-.887-3.036-2.219h-3.871c.062 3.179 2.903 5.39 6.898 5.39Zm13.392-2.734h-3.125l-.044.994c-.107 2.415-.799 4.892-1.057 5.93h2.451c.426-1.074 1.438-3.595 1.678-5.948l.097-.976Zm9.795 2.886c4.572 0 7.333-3.48 7.342-9.473.009-5.949-2.788-9.358-7.342-9.358-4.564 0-7.333 3.4-7.342 9.358-.018 5.974 2.761 9.463 7.342 9.472Zm0-3.188c-2.087 0-3.436-2.095-3.427-6.285.009-4.129 1.349-6.206 3.427-6.206 2.068 0 3.418 2.077 3.418 6.206.009 4.19-1.341 6.285-3.418 6.285Zm16.865 3.036c4.102 0 7.049-2.193 7.058-5.14-.009-2.273-1.758-4.128-3.942-4.492v-.124c1.9-.391 3.259-2.034 3.268-4.031-.009-2.814-2.708-4.892-6.384-4.892-3.684 0-6.383 2.078-6.374 4.892-.009 1.989 1.332 3.64 3.267 4.03v.125c-2.219.364-3.951 2.22-3.942 4.492-.009 2.947 2.948 5.14 7.049 5.14Zm0-2.823c-1.828 0-3.054-1.083-3.054-2.619 0-1.571 1.288-2.707 3.054-2.707 1.758 0 3.054 1.136 3.054 2.707 0 1.545-1.234 2.62-3.054 2.62Zm0-8.123c-1.536 0-2.627-1.003-2.627-2.442 0-1.42 1.074-2.397 2.627-2.397 1.545 0 2.628.986 2.628 2.398 0 1.438-1.101 2.44-2.628 2.44Zm17.656-7.484h-3.613l-4.501 2.85v3.409l4.164-2.61h.106V83h3.844V64.818Z" fill="#FF4953"/><path d="M345 36h-1v52h1V36Z" fill="#E0E1E9"/><path d="M372.112 51h1.551l2.143-7.627h.079L378.028 51h1.546l2.829-10.182h-1.621l-1.978 7.89h-.095l-2.063-7.89h-1.601l-2.063 7.885h-.094l-1.984-7.885h-1.616L372.112 51Zm13.043.169c1.263 0 1.974-.642 2.257-1.213h.06V51h1.451v-5.071c0-2.223-1.75-2.665-2.963-2.665-1.382 0-2.655.557-3.152 1.949l1.397.318c.219-.542.776-1.064 1.775-1.064.96 0 1.452.502 1.452 1.367v.035c0 .542-.557.532-1.929.691-1.447.169-2.928.547-2.928 2.282 0 1.501 1.128 2.327 2.58 2.327Zm.323-1.194c-.84 0-1.447-.377-1.447-1.113 0-.796.706-1.079 1.566-1.193.483-.065 1.626-.194 1.84-.408v.984c0 .905-.721 1.73-1.959 1.73ZM390.903 51h1.487v-4.664c0-.999.77-1.72 1.824-1.72.309 0 .657.055.776.09v-1.422a6.066 6.066 0 0 0-.631-.035c-.895 0-1.661.507-1.939 1.327h-.08v-1.213h-1.437V51Zm6.86-4.534c0-1.218.746-1.915 1.78-1.915 1.009 0 1.62.662 1.62 1.77V51h1.487v-4.858c0-1.889-1.039-2.878-2.6-2.878-1.149 0-1.899.532-2.252 1.342h-.095v-1.243h-1.427V51h1.487v-4.534ZM404.644 51h1.486v-7.637h-1.486V51Zm.75-8.815c.512 0 .94-.398.94-.885s-.428-.89-.94-.89c-.517 0-.939.403-.939.89s.422.885.939.885Zm4.222 4.281c0-1.218.746-1.915 1.78-1.915 1.009 0 1.621.662 1.621 1.77V51h1.486v-4.858c0-1.889-1.039-2.878-2.6-2.878-1.148 0-1.899.532-2.252 1.342h-.094v-1.243h-1.427V51h1.486v-4.534Zm10.083 7.556c1.944 0 3.445-.89 3.445-2.853v-7.806h-1.457v1.238h-.109c-.263-.472-.79-1.337-2.212-1.337-1.845 0-3.202 1.456-3.202 3.888 0 2.436 1.387 3.733 3.192 3.733 1.402 0 1.944-.79 2.212-1.277h.095v1.501c0 1.198-.821 1.715-1.949 1.715-1.238 0-1.72-.621-1.984-1.059l-1.278.527c.403.935 1.422 1.73 3.247 1.73Zm-.015-4.37c-1.328 0-2.019-1.019-2.019-2.52 0-1.467.677-2.605 2.019-2.605 1.297 0 1.993 1.059 1.993 2.605 0 1.576-.71 2.52-1.993 2.52Zm11.176-4.424c-.308-1.189-1.238-1.964-2.888-1.964-1.726 0-2.949.91-2.949 2.262 0 1.084.657 1.805 2.088 2.123l1.293.283c.736.164 1.079.492 1.079.97 0 .591-.632 1.054-1.606 1.054-.89 0-1.462-.383-1.641-1.134l-1.436.219c.248 1.352 1.372 2.113 3.087 2.113 1.844 0 3.122-.98 3.122-2.362 0-1.079-.686-1.745-2.088-2.068l-1.213-.278c-.84-.2-1.203-.483-1.198-1-.005-.586.631-1.004 1.476-1.004.925 0 1.353.512 1.527 1.024l1.347-.238Z" fill="#6C6E79"/><path d="M377.115 83.248c4.048 0 6.8-2.636 6.791-6.312.009-3.48-2.423-5.984-5.699-5.984-1.598 0-2.974.666-3.614 1.563h-.106l.47-4.554h7.946v-3.143h-11.115l-.861 9.588 3.418.613c.559-.755 1.642-1.226 2.716-1.226 1.829.01 3.143 1.332 3.143 3.24 0 1.892-1.287 3.197-3.089 3.197-1.527 0-2.761-.959-2.85-2.37h-3.729c.071 3.142 2.814 5.388 6.579 5.388Zm16.601.152c4.572 0 7.333-3.48 7.342-9.473.009-5.949-2.787-9.358-7.342-9.358-4.563 0-7.333 3.4-7.342 9.358-.018 5.974 2.761 9.463 7.342 9.472Zm0-3.188c-2.086 0-3.436-2.095-3.427-6.285.009-4.129 1.35-6.206 3.427-6.206 2.069 0 3.418 2.077 3.418 6.206.009 4.19-1.34 6.285-3.418 6.285Zm13.472.302h-3.125l-.044.994c-.107 2.415-.799 4.892-1.057 5.93h2.451c.426-1.074 1.438-3.595 1.678-5.948l.097-.976ZM410.611 83h12.961v-3.143h-7.635v-.124l2.655-2.602c3.737-3.409 4.741-5.113 4.741-7.182 0-3.151-2.575-5.38-6.472-5.38-3.818 0-6.437 2.282-6.428 5.85h3.649c-.009-1.74 1.092-2.805 2.752-2.805 1.598 0 2.788.995 2.788 2.593 0 1.447-.888 2.441-2.539 4.03l-6.472 5.993V83Zm22.876.4c4.572 0 7.333-3.48 7.342-9.473.009-5.949-2.788-9.358-7.342-9.358-4.564 0-7.333 3.4-7.342 9.358-.018 5.974 2.761 9.463 7.342 9.472Zm0-3.188c-2.087 0-3.436-2.095-3.427-6.285.009-4.129 1.349-6.206 3.427-6.206 2.068 0 3.418 2.077 3.418 6.206.009 4.19-1.341 6.285-3.418 6.285Zm9.807-.408h8.727V83h3.676v-3.196h2.255v-3.08h-2.255V64.817h-4.812l-7.591 11.958v3.028Zm8.798-3.08h-4.927v-.143l4.785-7.573h.142v7.715Z" fill="#FF622D"/><path d="M485 36h-1v52h1V36Z" fill="#E0E1E9"/><path d="M518.337 40.818h-1.522v7.477h-.094l-5.18-7.477h-1.422V51h1.536v-7.468h.094L516.925 51h1.412V40.818Zm5.338 10.336c2.153 0 3.56-1.576 3.56-3.938 0-2.376-1.407-3.952-3.56-3.952s-3.56 1.576-3.56 3.952c0 2.362 1.407 3.938 3.56 3.938Zm.005-1.248c-1.407 0-2.063-1.228-2.063-2.695 0-1.461.656-2.704 2.063-2.704 1.397 0 2.053 1.243 2.053 2.704 0 1.467-.656 2.695-2.053 2.695Zm8.778-6.543h-1.566v-1.83h-1.486v1.83h-1.119v1.194h1.119v4.509c-.005 1.387 1.054 2.058 2.227 2.033.473-.005.791-.094.965-.159l-.269-1.228c-.099.02-.283.065-.522.065-.482 0-.915-.16-.915-1.02v-4.2h1.566v-1.194ZM534.103 51h1.486v-7.637h-1.486V51Zm.751-8.815c.512 0 .939-.398.939-.885s-.427-.89-.939-.89c-.517 0-.94.403-.94.89s.423.885.94.885Zm5.952 8.969c1.804 0 2.973-1.084 3.137-2.57h-1.447c-.189.825-.83 1.312-1.68 1.312-1.258 0-2.068-1.05-2.068-2.715 0-1.635.825-2.664 2.068-2.664.944 0 1.521.596 1.68 1.312h1.447c-.159-1.541-1.417-2.565-3.152-2.565-2.153 0-3.545 1.62-3.545 3.952 0 2.302 1.342 3.938 3.56 3.938Zm8.018 0c1.665 0 2.843-.82 3.182-2.063l-1.407-.254c-.269.72-.915 1.089-1.76 1.089-1.273 0-2.128-.826-2.168-2.297h5.429v-.527c0-2.76-1.651-3.838-3.381-3.838-2.128 0-3.53 1.62-3.53 3.967 0 2.372 1.383 3.923 3.635 3.923Zm-2.148-4.639c.06-1.084.845-2.023 2.053-2.023 1.154 0 1.909.855 1.914 2.023h-3.967Zm12.796-1.287c-.309-1.189-1.238-1.964-2.889-1.964-1.725 0-2.948.91-2.948 2.262 0 1.084.656 1.805 2.088 2.123l1.293.283c.735.164 1.079.492 1.079.97 0 .591-.632 1.054-1.606 1.054-.89 0-1.462-.383-1.641-1.134l-1.437.219c.249 1.352 1.372 2.113 3.088 2.113 1.844 0 3.122-.98 3.122-2.362 0-1.079-.686-1.745-2.088-2.068l-1.213-.278c-.841-.2-1.203-.483-1.199-1-.004-.586.632-1.004 1.477-1.004.925 0 1.352.512 1.526 1.024l1.348-.238Z" fill="#6C6E79"/><path d="M510.473 83h12.962v-3.143H515.8v-.124l2.655-2.602c3.737-3.409 4.74-5.113 4.74-7.182 0-3.151-2.574-5.38-6.472-5.38-3.817 0-6.436 2.282-6.427 5.85h3.649c-.009-1.74 1.092-2.805 2.752-2.805 1.598 0 2.787.995 2.787 2.593 0 1.447-.887 2.441-2.539 4.03l-6.472 5.993V83Zm22.468.248c4.084 0 7.005-2.246 6.996-5.353.009-2.264-1.43-3.88-4.102-4.217v-.142c2.033-.364 3.436-1.802 3.427-3.844.009-2.868-2.503-5.123-6.268-5.123-3.728 0-6.534 2.184-6.587 5.327h3.684c.045-1.385 1.314-2.282 2.886-2.282 1.553 0 2.592.941 2.583 2.309.009 1.429-1.207 2.397-2.956 2.397h-1.696v2.823h1.696c2.059 0 3.347 1.03 3.338 2.495.009 1.447-1.234 2.44-2.992 2.44-1.696 0-2.965-.887-3.036-2.219h-3.871c.062 3.179 2.903 5.39 6.898 5.39Zm13.392-2.734h-3.125l-.044.994c-.107 2.415-.799 4.892-1.057 5.93h2.451c.426-1.074 1.438-3.595 1.678-5.948l.097-.976Zm9.644 2.734c4.048.018 6.809-2.636 6.8-6.339.009-3.409-2.37-5.868-5.593-5.868-1.997 0-3.764.96-4.581 2.566h-.124c.018-3.542 1.261-5.744 3.631-5.744 1.394 0 2.397.763 2.69 2.033h3.791c-.364-2.992-2.85-5.327-6.481-5.327-4.492 0-7.377 3.64-7.395 9.748-.009 6.659 3.524 8.914 7.262 8.931Zm-.018-3.018c-1.775 0-3.089-1.43-3.089-3.205.008-1.767 1.349-3.205 3.116-3.205 1.775 0 3.071 1.394 3.063 3.196.008 1.82-1.314 3.214-3.09 3.214Zm9.544 2.77h12.961v-3.143h-7.635v-.124l2.655-2.602c3.738-3.409 4.741-5.113 4.741-7.182 0-3.151-2.575-5.38-6.472-5.38-3.818 0-6.437 2.282-6.428 5.85h3.649c-.009-1.74 1.092-2.805 2.752-2.805 1.598 0 2.788.995 2.788 2.593 0 1.447-.888 2.441-2.539 4.03l-6.472 5.993V83Zm15.747 0h12.961v-3.143h-7.634v-.124l2.654-2.602c3.738-3.409 4.741-5.113 4.741-7.182 0-3.151-2.575-5.38-6.472-5.38-3.818 0-6.437 2.282-6.428 5.85h3.649c-.009-1.74 1.092-2.805 2.752-2.805 1.598 0 2.788.995 2.788 2.593 0 1.447-.888 2.441-2.539 4.03l-6.472 5.993V83Z" fill="#008FF8"/></svg>